M48
;Layer_Color=9474304
;FILE_FORMAT=2:5
INCH,LZ
;TYPE=PLATED
T01F00S00C0.00787
%
T01
X0006299Y0006693
X0004921Y0008268
X0006299Y0009843
X0004921Y0011417
X0006299Y0012992
X0004921Y0014567
X0006299Y0016142
X0004921Y0017717
X0006299Y0019291
X0004921Y0020866
X0022441Y0038386
X0024016Y0037008
X0025591Y0038386
X0027165Y0037008
X002874Y0038386
X0030315Y0037008
X003189Y0038386
X0033465Y0037008
X0035039Y0038386
X0036614Y0037008
M30
