G04*
G04 #@! TF.GenerationSoftware,Altium Limited,Altium Designer,25.8.1 (18)*
G04*
G04 Layer_Color=65535*
%FSLAX44Y44*%
%MOMM*%
G71*
G04*
G04 #@! TF.SameCoordinates,35E46C87-A708-4878-9C39-C93A67F0F4E1*
G04*
G04*
G04 #@! TF.FilePolarity,Positive*
G04*
G01*
G75*
G36*
X65028Y63995D02*
X63311D01*
Y65582D01*
X65028D01*
Y63995D01*
D02*
G37*
G36*
X49729D02*
X48012D01*
Y65582D01*
X49729D01*
Y63995D01*
D02*
G37*
G36*
X98604Y65725D02*
X98650D01*
X98708Y65718D01*
X98766D01*
X98909Y65699D01*
X99064Y65679D01*
X99246Y65647D01*
X99440Y65608D01*
X99647Y65556D01*
X99867Y65491D01*
X100088Y65414D01*
X100314Y65317D01*
X100534Y65206D01*
X100755Y65077D01*
X100962Y64928D01*
X101163Y64753D01*
X101169Y64746D01*
X101189Y64727D01*
X101221Y64695D01*
X101260Y64649D01*
X101312Y64591D01*
X101370Y64513D01*
X101435Y64429D01*
X101506Y64332D01*
X101577Y64222D01*
X101655Y64099D01*
X101733Y63963D01*
X101811Y63820D01*
X101882Y63658D01*
X101953Y63490D01*
X102024Y63302D01*
X102083Y63108D01*
X100288Y62680D01*
Y62687D01*
X100282Y62713D01*
X100269Y62745D01*
X100256Y62797D01*
X100237Y62855D01*
X100211Y62920D01*
X100178Y62998D01*
X100146Y63075D01*
X100055Y63250D01*
X99997Y63341D01*
X99939Y63432D01*
X99874Y63522D01*
X99796Y63613D01*
X99712Y63697D01*
X99621Y63775D01*
X99615Y63781D01*
X99602Y63794D01*
X99569Y63814D01*
X99531Y63840D01*
X99485Y63872D01*
X99427Y63905D01*
X99356Y63943D01*
X99284Y63982D01*
X99194Y64015D01*
X99103Y64054D01*
X99000Y64086D01*
X98896Y64118D01*
X98779Y64144D01*
X98656Y64164D01*
X98533Y64177D01*
X98397Y64183D01*
X98352D01*
X98300Y64177D01*
X98235Y64170D01*
X98151Y64164D01*
X98054Y64144D01*
X97944Y64125D01*
X97827Y64092D01*
X97698Y64054D01*
X97568Y64008D01*
X97432Y63950D01*
X97296Y63879D01*
X97167Y63794D01*
X97030Y63704D01*
X96907Y63594D01*
X96784Y63464D01*
X96778Y63458D01*
X96758Y63432D01*
X96726Y63386D01*
X96687Y63328D01*
X96642Y63250D01*
X96590Y63153D01*
X96532Y63043D01*
X96480Y62907D01*
X96422Y62758D01*
X96363Y62583D01*
X96312Y62395D01*
X96266Y62188D01*
X96227Y61955D01*
X96195Y61709D01*
X96175Y61437D01*
X96169Y61145D01*
Y61139D01*
Y61126D01*
Y61100D01*
Y61074D01*
Y61029D01*
X96175Y60983D01*
Y60932D01*
X96182Y60867D01*
X96188Y60731D01*
X96201Y60569D01*
X96221Y60394D01*
X96247Y60206D01*
X96279Y60012D01*
X96318Y59811D01*
X96370Y59610D01*
X96428Y59409D01*
X96493Y59222D01*
X96577Y59040D01*
X96668Y58878D01*
X96778Y58729D01*
X96784Y58723D01*
X96804Y58697D01*
X96843Y58665D01*
X96888Y58619D01*
X96946Y58561D01*
X97024Y58503D01*
X97108Y58438D01*
X97205Y58373D01*
X97316Y58302D01*
X97432Y58237D01*
X97562Y58179D01*
X97704Y58120D01*
X97853Y58075D01*
X98015Y58043D01*
X98183Y58017D01*
X98365Y58010D01*
X98436D01*
X98488Y58017D01*
X98546Y58023D01*
X98617Y58036D01*
X98701Y58049D01*
X98792Y58069D01*
X98883Y58088D01*
X98980Y58120D01*
X99084Y58159D01*
X99187Y58205D01*
X99297Y58257D01*
X99401Y58315D01*
X99505Y58386D01*
X99602Y58464D01*
X99608Y58470D01*
X99628Y58483D01*
X99654Y58516D01*
X99686Y58555D01*
X99731Y58600D01*
X99783Y58665D01*
X99835Y58736D01*
X99893Y58820D01*
X99952Y58911D01*
X100016Y59021D01*
X100081Y59137D01*
X100139Y59267D01*
X100198Y59416D01*
X100256Y59565D01*
X100308Y59733D01*
X100353Y59915D01*
X102108Y59358D01*
Y59351D01*
X102102Y59338D01*
X102095Y59319D01*
X102089Y59293D01*
X102076Y59261D01*
X102063Y59215D01*
X102031Y59118D01*
X101985Y58995D01*
X101927Y58852D01*
X101862Y58697D01*
X101785Y58535D01*
X101700Y58360D01*
X101603Y58179D01*
X101493Y57997D01*
X101370Y57816D01*
X101234Y57641D01*
X101091Y57473D01*
X100930Y57317D01*
X100761Y57175D01*
X100748Y57168D01*
X100716Y57143D01*
X100664Y57110D01*
X100593Y57065D01*
X100502Y57013D01*
X100392Y56948D01*
X100262Y56883D01*
X100113Y56819D01*
X99952Y56754D01*
X99770Y56689D01*
X99576Y56631D01*
X99362Y56572D01*
X99142Y56527D01*
X98902Y56495D01*
X98650Y56469D01*
X98384Y56462D01*
X98306D01*
X98261Y56469D01*
X98209D01*
X98151Y56475D01*
X98086Y56482D01*
X98015Y56488D01*
X97937Y56501D01*
X97756Y56527D01*
X97562Y56566D01*
X97348Y56618D01*
X97121Y56676D01*
X96882Y56760D01*
X96642Y56858D01*
X96389Y56974D01*
X96150Y57117D01*
X95904Y57278D01*
X95787Y57369D01*
X95670Y57466D01*
X95560Y57570D01*
X95450Y57680D01*
Y57687D01*
X95437Y57693D01*
X95424Y57712D01*
X95398Y57738D01*
X95372Y57771D01*
X95346Y57810D01*
X95308Y57855D01*
X95269Y57907D01*
X95230Y57965D01*
X95184Y58030D01*
X95139Y58101D01*
X95087Y58179D01*
X94984Y58354D01*
X94880Y58555D01*
X94770Y58781D01*
X94666Y59027D01*
X94569Y59306D01*
X94485Y59604D01*
X94407Y59921D01*
X94355Y60264D01*
X94317Y60627D01*
X94310Y60821D01*
X94304Y61016D01*
Y61022D01*
Y61042D01*
Y61074D01*
Y61113D01*
X94310Y61165D01*
Y61230D01*
X94317Y61301D01*
X94323Y61385D01*
X94330Y61476D01*
X94336Y61573D01*
X94349Y61676D01*
X94362Y61786D01*
X94401Y62026D01*
X94446Y62285D01*
X94511Y62564D01*
X94582Y62849D01*
X94679Y63134D01*
X94789Y63425D01*
X94925Y63710D01*
X95074Y63982D01*
X95256Y64248D01*
X95353Y64371D01*
X95457Y64487D01*
X95463Y64494D01*
X95470Y64500D01*
X95489Y64520D01*
X95508Y64539D01*
X95573Y64604D01*
X95664Y64682D01*
X95780Y64779D01*
X95923Y64882D01*
X96085Y64993D01*
X96266Y65109D01*
X96473Y65226D01*
X96707Y65336D01*
X96953Y65446D01*
X97225Y65537D01*
X97516Y65614D01*
X97821Y65679D01*
X98151Y65718D01*
X98319Y65725D01*
X98494Y65731D01*
X98566D01*
X98604Y65725D01*
D02*
G37*
G36*
X89563D02*
X89608D01*
X89666Y65718D01*
X89724D01*
X89867Y65699D01*
X90022Y65679D01*
X90204Y65647D01*
X90398Y65608D01*
X90605Y65556D01*
X90826Y65491D01*
X91046Y65414D01*
X91272Y65317D01*
X91493Y65206D01*
X91713Y65077D01*
X91920Y64928D01*
X92121Y64753D01*
X92127Y64746D01*
X92147Y64727D01*
X92179Y64695D01*
X92218Y64649D01*
X92270Y64591D01*
X92328Y64513D01*
X92393Y64429D01*
X92464Y64332D01*
X92535Y64222D01*
X92613Y64099D01*
X92691Y63963D01*
X92769Y63820D01*
X92840Y63658D01*
X92911Y63490D01*
X92982Y63302D01*
X93041Y63108D01*
X91247Y62680D01*
Y62687D01*
X91240Y62713D01*
X91227Y62745D01*
X91214Y62797D01*
X91195Y62855D01*
X91169Y62920D01*
X91136Y62998D01*
X91104Y63075D01*
X91013Y63250D01*
X90955Y63341D01*
X90897Y63432D01*
X90832Y63522D01*
X90754Y63613D01*
X90670Y63697D01*
X90579Y63775D01*
X90573Y63781D01*
X90560Y63794D01*
X90528Y63814D01*
X90489Y63840D01*
X90443Y63872D01*
X90385Y63905D01*
X90314Y63943D01*
X90243Y63982D01*
X90152Y64015D01*
X90061Y64054D01*
X89958Y64086D01*
X89854Y64118D01*
X89737Y64144D01*
X89614Y64164D01*
X89491Y64177D01*
X89355Y64183D01*
X89310D01*
X89258Y64177D01*
X89193Y64170D01*
X89109Y64164D01*
X89012Y64144D01*
X88902Y64125D01*
X88785Y64092D01*
X88656Y64054D01*
X88526Y64008D01*
X88390Y63950D01*
X88254Y63879D01*
X88125Y63794D01*
X87989Y63704D01*
X87865Y63594D01*
X87742Y63464D01*
X87736Y63458D01*
X87717Y63432D01*
X87684Y63386D01*
X87645Y63328D01*
X87600Y63250D01*
X87548Y63153D01*
X87490Y63043D01*
X87438Y62907D01*
X87380Y62758D01*
X87321Y62583D01*
X87270Y62395D01*
X87224Y62188D01*
X87185Y61955D01*
X87153Y61709D01*
X87134Y61437D01*
X87127Y61145D01*
Y61139D01*
Y61126D01*
Y61100D01*
Y61074D01*
Y61029D01*
X87134Y60983D01*
Y60932D01*
X87140Y60867D01*
X87147Y60731D01*
X87160Y60569D01*
X87179Y60394D01*
X87205Y60206D01*
X87237Y60012D01*
X87276Y59811D01*
X87328Y59610D01*
X87386Y59409D01*
X87451Y59222D01*
X87535Y59040D01*
X87626Y58878D01*
X87736Y58729D01*
X87742Y58723D01*
X87762Y58697D01*
X87801Y58665D01*
X87846Y58619D01*
X87904Y58561D01*
X87982Y58503D01*
X88066Y58438D01*
X88163Y58373D01*
X88274Y58302D01*
X88390Y58237D01*
X88520Y58179D01*
X88662Y58120D01*
X88811Y58075D01*
X88973Y58043D01*
X89142Y58017D01*
X89323Y58010D01*
X89394D01*
X89446Y58017D01*
X89504Y58023D01*
X89575Y58036D01*
X89660Y58049D01*
X89750Y58069D01*
X89841Y58088D01*
X89938Y58120D01*
X90042Y58159D01*
X90145Y58205D01*
X90255Y58257D01*
X90359Y58315D01*
X90463Y58386D01*
X90560Y58464D01*
X90566Y58470D01*
X90586Y58483D01*
X90612Y58516D01*
X90644Y58555D01*
X90689Y58600D01*
X90741Y58665D01*
X90793Y58736D01*
X90851Y58820D01*
X90910Y58911D01*
X90975Y59021D01*
X91039Y59137D01*
X91097Y59267D01*
X91156Y59416D01*
X91214Y59565D01*
X91266Y59733D01*
X91311Y59915D01*
X93067Y59358D01*
Y59351D01*
X93060Y59338D01*
X93054Y59319D01*
X93047Y59293D01*
X93034Y59261D01*
X93021Y59215D01*
X92989Y59118D01*
X92943Y58995D01*
X92885Y58852D01*
X92820Y58697D01*
X92743Y58535D01*
X92659Y58360D01*
X92561Y58179D01*
X92451Y57997D01*
X92328Y57816D01*
X92192Y57641D01*
X92050Y57473D01*
X91888Y57317D01*
X91719Y57175D01*
X91706Y57168D01*
X91674Y57143D01*
X91622Y57110D01*
X91551Y57065D01*
X91460Y57013D01*
X91350Y56948D01*
X91221Y56883D01*
X91072Y56819D01*
X90910Y56754D01*
X90728Y56689D01*
X90534Y56631D01*
X90320Y56572D01*
X90100Y56527D01*
X89860Y56495D01*
X89608Y56469D01*
X89342Y56462D01*
X89264D01*
X89219Y56469D01*
X89167D01*
X89109Y56475D01*
X89044Y56482D01*
X88973Y56488D01*
X88895Y56501D01*
X88714Y56527D01*
X88520Y56566D01*
X88306Y56618D01*
X88079Y56676D01*
X87840Y56760D01*
X87600Y56858D01*
X87347Y56974D01*
X87108Y57117D01*
X86862Y57278D01*
X86745Y57369D01*
X86628Y57466D01*
X86518Y57570D01*
X86408Y57680D01*
Y57687D01*
X86395Y57693D01*
X86382Y57712D01*
X86356Y57738D01*
X86330Y57771D01*
X86305Y57810D01*
X86266Y57855D01*
X86227Y57907D01*
X86188Y57965D01*
X86143Y58030D01*
X86097Y58101D01*
X86046Y58179D01*
X85942Y58354D01*
X85838Y58555D01*
X85728Y58781D01*
X85625Y59027D01*
X85527Y59306D01*
X85443Y59604D01*
X85365Y59921D01*
X85314Y60264D01*
X85275Y60627D01*
X85268Y60821D01*
X85262Y61016D01*
Y61022D01*
Y61042D01*
Y61074D01*
Y61113D01*
X85268Y61165D01*
Y61230D01*
X85275Y61301D01*
X85281Y61385D01*
X85288Y61476D01*
X85294Y61573D01*
X85307Y61676D01*
X85320Y61786D01*
X85359Y62026D01*
X85404Y62285D01*
X85469Y62564D01*
X85540Y62849D01*
X85637Y63134D01*
X85747Y63425D01*
X85884Y63710D01*
X86032Y63982D01*
X86214Y64248D01*
X86311Y64371D01*
X86415Y64487D01*
X86421Y64494D01*
X86428Y64500D01*
X86447Y64520D01*
X86467Y64539D01*
X86531Y64604D01*
X86622Y64682D01*
X86739Y64779D01*
X86881Y64882D01*
X87043Y64993D01*
X87224Y65109D01*
X87431Y65226D01*
X87665Y65336D01*
X87911Y65446D01*
X88183Y65537D01*
X88474Y65614D01*
X88779Y65679D01*
X89109Y65718D01*
X89277Y65725D01*
X89452Y65731D01*
X89524D01*
X89563Y65725D01*
D02*
G37*
G36*
X55357Y63250D02*
X55416Y63244D01*
X55480Y63237D01*
X55552Y63231D01*
X55714Y63205D01*
X55889Y63173D01*
X56063Y63121D01*
X56245Y63050D01*
X56251D01*
X56264Y63043D01*
X56290Y63030D01*
X56322Y63011D01*
X56361Y62991D01*
X56407Y62965D01*
X56510Y62907D01*
X56627Y62829D01*
X56743Y62739D01*
X56860Y62642D01*
X56957Y62525D01*
Y62518D01*
X56970Y62512D01*
X56983Y62492D01*
X56996Y62467D01*
X57042Y62402D01*
X57093Y62318D01*
X57152Y62207D01*
X57203Y62091D01*
X57255Y61955D01*
X57301Y61806D01*
Y61800D01*
X57307Y61786D01*
Y61767D01*
X57313Y61735D01*
X57326Y61689D01*
X57333Y61638D01*
X57339Y61579D01*
X57352Y61508D01*
X57359Y61430D01*
X57365Y61346D01*
X57378Y61249D01*
X57385Y61145D01*
X57391Y61035D01*
Y60912D01*
X57398Y60783D01*
Y60647D01*
Y56618D01*
X55681D01*
Y59928D01*
Y59941D01*
Y59973D01*
Y60025D01*
Y60096D01*
X55675Y60180D01*
Y60277D01*
Y60381D01*
X55668Y60491D01*
X55655Y60718D01*
X55642Y60834D01*
X55630Y60944D01*
X55616Y61048D01*
X55604Y61139D01*
X55584Y61223D01*
X55565Y61288D01*
Y61294D01*
X55558Y61301D01*
X55545Y61340D01*
X55519Y61398D01*
X55480Y61463D01*
X55429Y61540D01*
X55370Y61625D01*
X55293Y61696D01*
X55209Y61767D01*
X55195Y61774D01*
X55163Y61793D01*
X55111Y61825D01*
X55040Y61858D01*
X54956Y61884D01*
X54852Y61916D01*
X54736Y61936D01*
X54613Y61942D01*
X54567D01*
X54535Y61936D01*
X54496D01*
X54451Y61929D01*
X54341Y61910D01*
X54218Y61884D01*
X54082Y61838D01*
X53939Y61780D01*
X53803Y61696D01*
X53797D01*
X53790Y61683D01*
X53771Y61670D01*
X53745Y61651D01*
X53686Y61599D01*
X53609Y61521D01*
X53531Y61430D01*
X53447Y61314D01*
X53376Y61184D01*
X53317Y61042D01*
Y61035D01*
X53311Y61022D01*
X53304Y60996D01*
X53298Y60964D01*
X53285Y60919D01*
X53278Y60860D01*
X53265Y60789D01*
X53252Y60705D01*
X53239Y60608D01*
X53226Y60504D01*
X53220Y60381D01*
X53207Y60245D01*
X53201Y60096D01*
X53194Y59928D01*
X53188Y59746D01*
Y59552D01*
Y56618D01*
X51471D01*
Y63114D01*
X53065D01*
Y62156D01*
X53078Y62169D01*
X53103Y62201D01*
X53149Y62259D01*
X53220Y62331D01*
X53304Y62408D01*
X53401Y62505D01*
X53518Y62603D01*
X53654Y62706D01*
X53797Y62810D01*
X53958Y62907D01*
X54140Y63004D01*
X54328Y63082D01*
X54528Y63153D01*
X54742Y63211D01*
X54969Y63244D01*
X55209Y63257D01*
X55306D01*
X55357Y63250D01*
D02*
G37*
G36*
X45014Y56618D02*
X43369D01*
X42248Y60795D01*
X41147Y56618D01*
X39482D01*
X37429Y63114D01*
X39094D01*
X40311Y58852D01*
X41432Y63114D01*
X43084D01*
X44165Y58852D01*
X45409Y63114D01*
X47106D01*
X45014Y56618D01*
D02*
G37*
G36*
X84083Y64066D02*
X79743D01*
Y61942D01*
X83487D01*
Y60426D01*
X79743D01*
Y56618D01*
X77936D01*
Y65582D01*
X84083D01*
Y64066D01*
D02*
G37*
G36*
X65028Y56618D02*
X63311D01*
Y63114D01*
X65028D01*
Y56618D01*
D02*
G37*
G36*
X49729D02*
X48012D01*
Y63114D01*
X49729D01*
Y56618D01*
D02*
G37*
G36*
X37125Y64066D02*
X34469D01*
Y56618D01*
X32662D01*
Y64066D01*
X30000D01*
Y65582D01*
X37125D01*
Y64066D01*
D02*
G37*
G36*
X60934Y63114D02*
X62106D01*
Y61748D01*
X60934D01*
Y59124D01*
Y59118D01*
Y59092D01*
Y59053D01*
Y58995D01*
Y58937D01*
Y58865D01*
X60941Y58710D01*
Y58548D01*
X60947Y58470D01*
Y58393D01*
X60954Y58328D01*
Y58270D01*
X60960Y58224D01*
X60967Y58192D01*
Y58185D01*
X60973Y58172D01*
X60986Y58146D01*
X60999Y58114D01*
X61018Y58082D01*
X61044Y58049D01*
X61077Y58010D01*
X61115Y57978D01*
X61122Y57972D01*
X61135Y57965D01*
X61161Y57952D01*
X61200Y57939D01*
X61239Y57920D01*
X61290Y57907D01*
X61349Y57900D01*
X61407Y57894D01*
X61452D01*
X61504Y57900D01*
X61582Y57913D01*
X61679Y57933D01*
X61802Y57965D01*
X61938Y58004D01*
X62100Y58056D01*
X62249Y56722D01*
X62242D01*
X62223Y56708D01*
X62191Y56696D01*
X62145Y56683D01*
X62087Y56663D01*
X62016Y56644D01*
X61938Y56618D01*
X61854Y56598D01*
X61757Y56572D01*
X61653Y56547D01*
X61543Y56527D01*
X61420Y56508D01*
X61167Y56482D01*
X60889Y56469D01*
X60811D01*
X60772Y56475D01*
X60727D01*
X60610Y56488D01*
X60481Y56508D01*
X60345Y56534D01*
X60196Y56572D01*
X60053Y56624D01*
X60047D01*
X60040Y56631D01*
X60021Y56637D01*
X59995Y56650D01*
X59930Y56689D01*
X59846Y56734D01*
X59755Y56793D01*
X59671Y56858D01*
X59580Y56935D01*
X59509Y57026D01*
X59503Y57039D01*
X59483Y57071D01*
X59451Y57130D01*
X59412Y57201D01*
X59373Y57298D01*
X59334Y57414D01*
X59296Y57551D01*
X59270Y57699D01*
Y57706D01*
Y57712D01*
X59263Y57732D01*
Y57758D01*
X59257Y57797D01*
Y57842D01*
X59250Y57900D01*
X59244Y57965D01*
X59237Y58036D01*
Y58127D01*
X59231Y58224D01*
X59224Y58334D01*
Y58457D01*
X59218Y58600D01*
Y58749D01*
Y58911D01*
Y61748D01*
X58428D01*
Y63114D01*
X59218D01*
Y64403D01*
X60934Y65414D01*
Y63114D01*
D02*
G37*
G36*
X69257Y63250D02*
X69341Y63237D01*
X69445Y63224D01*
X69562Y63198D01*
X69697Y63166D01*
X69840Y63127D01*
X69995Y63069D01*
X70157Y62998D01*
X70319Y62913D01*
X70488Y62810D01*
X70656Y62687D01*
X70818Y62544D01*
X70980Y62382D01*
X71129Y62195D01*
Y63114D01*
X72735D01*
Y57278D01*
Y57266D01*
Y57227D01*
Y57168D01*
Y57091D01*
X72729Y57000D01*
X72722Y56890D01*
Y56767D01*
X72709Y56637D01*
X72703Y56501D01*
X72690Y56359D01*
X72651Y56074D01*
X72632Y55938D01*
X72606Y55808D01*
X72573Y55679D01*
X72541Y55569D01*
Y55562D01*
X72534Y55543D01*
X72522Y55517D01*
X72509Y55478D01*
X72489Y55426D01*
X72463Y55374D01*
X72405Y55245D01*
X72327Y55102D01*
X72236Y54953D01*
X72133Y54804D01*
X72010Y54675D01*
X72003Y54668D01*
X71997Y54662D01*
X71977Y54642D01*
X71945Y54623D01*
X71913Y54597D01*
X71874Y54565D01*
X71822Y54526D01*
X71764Y54493D01*
X71705Y54448D01*
X71634Y54409D01*
X71479Y54325D01*
X71297Y54241D01*
X71090Y54170D01*
X71084D01*
X71064Y54163D01*
X71032Y54150D01*
X70986Y54144D01*
X70935Y54124D01*
X70863Y54111D01*
X70786Y54092D01*
X70695Y54079D01*
X70598Y54060D01*
X70488Y54040D01*
X70371Y54027D01*
X70242Y54014D01*
X70106Y54001D01*
X69957Y53988D01*
X69808Y53982D01*
X69536D01*
X69490Y53988D01*
X69380D01*
X69244Y54001D01*
X69089Y54014D01*
X68914Y54027D01*
X68733Y54053D01*
X68545Y54085D01*
X68350Y54124D01*
X68149Y54170D01*
X67962Y54221D01*
X67774Y54286D01*
X67599Y54364D01*
X67443Y54455D01*
X67301Y54552D01*
X67295Y54558D01*
X67269Y54578D01*
X67236Y54610D01*
X67191Y54655D01*
X67139Y54714D01*
X67081Y54778D01*
X67023Y54856D01*
X66958Y54947D01*
X66893Y55044D01*
X66835Y55154D01*
X66776Y55271D01*
X66725Y55400D01*
X66679Y55536D01*
X66647Y55679D01*
X66621Y55828D01*
X66614Y55990D01*
Y55996D01*
Y56009D01*
Y56022D01*
Y56048D01*
Y56113D01*
X66621Y56197D01*
X68583Y55957D01*
Y55951D01*
Y55944D01*
X68596Y55899D01*
X68609Y55841D01*
X68629Y55769D01*
X68661Y55692D01*
X68700Y55614D01*
X68745Y55543D01*
X68810Y55484D01*
X68823Y55478D01*
X68856Y55458D01*
X68914Y55426D01*
X68998Y55394D01*
X69102Y55355D01*
X69166Y55342D01*
X69238Y55329D01*
X69315Y55316D01*
X69393Y55303D01*
X69484Y55297D01*
X69646D01*
X69691Y55303D01*
X69749D01*
X69814Y55310D01*
X69885Y55316D01*
X69963Y55322D01*
X70125Y55348D01*
X70293Y55387D01*
X70449Y55433D01*
X70527Y55465D01*
X70591Y55504D01*
X70604Y55510D01*
X70630Y55530D01*
X70669Y55562D01*
X70721Y55608D01*
X70773Y55672D01*
X70831Y55743D01*
X70889Y55834D01*
X70935Y55938D01*
X70941Y55951D01*
X70948Y55983D01*
X70960Y56035D01*
X70967Y56074D01*
X70980Y56119D01*
X70986Y56164D01*
X70993Y56223D01*
X70999Y56287D01*
X71006Y56359D01*
X71012Y56437D01*
Y56527D01*
X71019Y56618D01*
Y56722D01*
X71025Y57674D01*
X71019Y57661D01*
X70993Y57628D01*
X70948Y57576D01*
X70883Y57512D01*
X70812Y57428D01*
X70714Y57337D01*
X70611Y57246D01*
X70488Y57149D01*
X70352Y57045D01*
X70209Y56955D01*
X70047Y56864D01*
X69872Y56786D01*
X69685Y56715D01*
X69490Y56663D01*
X69283Y56631D01*
X69069Y56618D01*
X69011D01*
X68946Y56624D01*
X68856Y56637D01*
X68745Y56650D01*
X68616Y56676D01*
X68473Y56708D01*
X68318Y56754D01*
X68156Y56812D01*
X67988Y56890D01*
X67819Y56974D01*
X67644Y57084D01*
X67469Y57207D01*
X67308Y57356D01*
X67146Y57525D01*
X66997Y57719D01*
X66990Y57732D01*
X66971Y57758D01*
X66945Y57810D01*
X66906Y57874D01*
X66861Y57959D01*
X66809Y58062D01*
X66757Y58185D01*
X66699Y58321D01*
X66640Y58470D01*
X66589Y58632D01*
X66537Y58814D01*
X66491Y59008D01*
X66459Y59209D01*
X66427Y59429D01*
X66407Y59656D01*
X66401Y59895D01*
Y59902D01*
Y59915D01*
Y59934D01*
Y59967D01*
Y60005D01*
X66407Y60051D01*
Y60103D01*
X66414Y60161D01*
X66427Y60303D01*
X66440Y60459D01*
X66466Y60634D01*
X66498Y60821D01*
X66543Y61016D01*
X66595Y61223D01*
X66653Y61430D01*
X66731Y61638D01*
X66822Y61838D01*
X66925Y62033D01*
X67048Y62221D01*
X67184Y62389D01*
X67191Y62402D01*
X67223Y62428D01*
X67262Y62467D01*
X67327Y62525D01*
X67405Y62590D01*
X67495Y62661D01*
X67599Y62745D01*
X67722Y62823D01*
X67858Y62907D01*
X68007Y62985D01*
X68169Y63056D01*
X68337Y63121D01*
X68525Y63179D01*
X68720Y63218D01*
X68927Y63250D01*
X69141Y63257D01*
X69192D01*
X69257Y63250D01*
D02*
G37*
G36*
X75559Y49857D02*
X75611Y49851D01*
X75669Y49844D01*
X75741Y49838D01*
X75818Y49825D01*
X75993Y49786D01*
X76188Y49728D01*
X76285Y49689D01*
X76388Y49643D01*
X76492Y49592D01*
X76596Y49533D01*
X76058Y48037D01*
X76052Y48044D01*
X76038Y48050D01*
X76013Y48063D01*
X75987Y48082D01*
X75948Y48102D01*
X75903Y48128D01*
X75792Y48180D01*
X75669Y48232D01*
X75533Y48277D01*
X75391Y48309D01*
X75320Y48322D01*
X75190D01*
X75119Y48309D01*
X75035Y48296D01*
X74937Y48270D01*
X74834Y48238D01*
X74730Y48186D01*
X74633Y48121D01*
X74620Y48115D01*
X74594Y48082D01*
X74549Y48031D01*
X74490Y47959D01*
X74432Y47856D01*
X74400Y47797D01*
X74367Y47733D01*
X74335Y47661D01*
X74303Y47584D01*
X74270Y47493D01*
X74244Y47402D01*
Y47396D01*
X74238Y47376D01*
X74231Y47344D01*
X74225Y47299D01*
X74212Y47234D01*
X74199Y47150D01*
X74186Y47053D01*
X74173Y46936D01*
X74160Y46800D01*
X74147Y46645D01*
X74134Y46463D01*
X74121Y46269D01*
X74115Y46042D01*
X74108Y45796D01*
X74102Y45524D01*
Y45382D01*
Y45226D01*
Y43225D01*
X72386D01*
Y49721D01*
X73979D01*
Y48795D01*
X73985Y48801D01*
X73998Y48821D01*
X74018Y48860D01*
X74050Y48899D01*
X74082Y48950D01*
X74128Y49015D01*
X74225Y49151D01*
X74335Y49294D01*
X74458Y49436D01*
X74523Y49501D01*
X74588Y49559D01*
X74652Y49611D01*
X74711Y49656D01*
X74717D01*
X74724Y49663D01*
X74743Y49676D01*
X74769Y49689D01*
X74840Y49721D01*
X74931Y49760D01*
X75041Y49799D01*
X75164Y49831D01*
X75307Y49857D01*
X75456Y49864D01*
X75514D01*
X75559Y49857D01*
D02*
G37*
G36*
X81019D02*
X81097Y49851D01*
X81194Y49838D01*
X81311Y49818D01*
X81434Y49792D01*
X81576Y49753D01*
X81725Y49708D01*
X81874Y49650D01*
X82036Y49579D01*
X82198Y49488D01*
X82360Y49391D01*
X82522Y49268D01*
X82684Y49132D01*
X82833Y48976D01*
X82839Y48963D01*
X82865Y48937D01*
X82904Y48886D01*
X82956Y48814D01*
X83014Y48724D01*
X83085Y48614D01*
X83157Y48484D01*
X83228Y48335D01*
X83299Y48167D01*
X83371Y47985D01*
X83442Y47778D01*
X83500Y47558D01*
X83552Y47318D01*
X83591Y47066D01*
X83617Y46794D01*
X83623Y46502D01*
Y46496D01*
Y46483D01*
Y46463D01*
Y46431D01*
Y46392D01*
X83617Y46347D01*
Y46295D01*
X83610Y46237D01*
X83597Y46101D01*
X83584Y45939D01*
X83558Y45764D01*
X83526Y45576D01*
X83481Y45375D01*
X83429Y45174D01*
X83364Y44961D01*
X83286Y44753D01*
X83196Y44546D01*
X83092Y44345D01*
X82969Y44151D01*
X82826Y43976D01*
X82820Y43963D01*
X82788Y43937D01*
X82749Y43892D01*
X82684Y43834D01*
X82606Y43769D01*
X82515Y43691D01*
X82405Y43607D01*
X82289Y43529D01*
X82153Y43445D01*
X82004Y43361D01*
X81848Y43283D01*
X81673Y43218D01*
X81499Y43160D01*
X81304Y43115D01*
X81103Y43089D01*
X80896Y43076D01*
X80844D01*
X80806Y43082D01*
X80754D01*
X80702Y43089D01*
X80637Y43095D01*
X80572Y43102D01*
X80417Y43128D01*
X80249Y43166D01*
X80080Y43218D01*
X79912Y43289D01*
X79905D01*
X79892Y43302D01*
X79866Y43315D01*
X79834Y43328D01*
X79795Y43354D01*
X79750Y43387D01*
X79698Y43419D01*
X79633Y43464D01*
X79497Y43562D01*
X79426Y43620D01*
X79342Y43691D01*
X79264Y43762D01*
X79173Y43840D01*
X79089Y43931D01*
X78998Y44021D01*
Y40757D01*
X77282D01*
Y49721D01*
X78882D01*
Y48763D01*
X78888Y48769D01*
X78895Y48782D01*
X78914Y48808D01*
X78940Y48847D01*
X78973Y48886D01*
X79011Y48937D01*
X79050Y48989D01*
X79102Y49048D01*
X79225Y49171D01*
X79368Y49307D01*
X79536Y49436D01*
X79724Y49559D01*
X79730Y49566D01*
X79750Y49572D01*
X79776Y49585D01*
X79815Y49605D01*
X79866Y49630D01*
X79925Y49656D01*
X79996Y49682D01*
X80074Y49715D01*
X80158Y49741D01*
X80249Y49767D01*
X80449Y49818D01*
X80670Y49851D01*
X80786Y49864D01*
X80961D01*
X81019Y49857D01*
D02*
G37*
G36*
X61498D02*
X61601Y49851D01*
X61718Y49838D01*
X61847Y49818D01*
X61983Y49799D01*
X62132Y49773D01*
X62281Y49741D01*
X62443Y49695D01*
X62599Y49643D01*
X62754Y49585D01*
X62910Y49514D01*
X63052Y49436D01*
X63188Y49345D01*
X63195Y49339D01*
X63221Y49320D01*
X63253Y49294D01*
X63305Y49248D01*
X63363Y49197D01*
X63428Y49132D01*
X63499Y49048D01*
X63577Y48957D01*
X63661Y48860D01*
X63745Y48743D01*
X63829Y48614D01*
X63907Y48471D01*
X63991Y48322D01*
X64069Y48160D01*
X64134Y47979D01*
X64199Y47791D01*
X62508Y47487D01*
Y47493D01*
X62502Y47506D01*
X62495Y47532D01*
X62489Y47571D01*
X62476Y47610D01*
X62463Y47661D01*
X62424Y47772D01*
X62372Y47895D01*
X62301Y48024D01*
X62217Y48141D01*
X62113Y48251D01*
X62106D01*
X62100Y48264D01*
X62081Y48277D01*
X62061Y48290D01*
X61990Y48335D01*
X61899Y48380D01*
X61789Y48426D01*
X61653Y48471D01*
X61498Y48497D01*
X61329Y48510D01*
X61265D01*
X61219Y48503D01*
X61167Y48497D01*
X61102Y48484D01*
X61031Y48471D01*
X60960Y48452D01*
X60876Y48432D01*
X60792Y48400D01*
X60707Y48368D01*
X60623Y48322D01*
X60539Y48270D01*
X60455Y48212D01*
X60377Y48141D01*
X60299Y48063D01*
X60293Y48057D01*
X60280Y48044D01*
X60267Y48018D01*
X60241Y47979D01*
X60209Y47927D01*
X60176Y47869D01*
X60144Y47797D01*
X60112Y47713D01*
X60073Y47616D01*
X60040Y47506D01*
X60008Y47383D01*
X59976Y47253D01*
X59950Y47105D01*
X59937Y46943D01*
X59924Y46768D01*
X59917Y46580D01*
Y46567D01*
Y46528D01*
Y46470D01*
X59924Y46392D01*
X59930Y46295D01*
X59937Y46191D01*
X59950Y46068D01*
X59969Y45945D01*
X60014Y45673D01*
X60047Y45537D01*
X60079Y45408D01*
X60125Y45278D01*
X60176Y45155D01*
X60235Y45045D01*
X60306Y44948D01*
X60312Y44941D01*
X60325Y44928D01*
X60345Y44902D01*
X60377Y44876D01*
X60416Y44837D01*
X60461Y44799D01*
X60520Y44753D01*
X60584Y44714D01*
X60656Y44669D01*
X60733Y44624D01*
X60818Y44585D01*
X60908Y44546D01*
X61012Y44520D01*
X61115Y44494D01*
X61232Y44481D01*
X61349Y44475D01*
X61394D01*
X61433Y44481D01*
X61472D01*
X61517Y44488D01*
X61634Y44507D01*
X61757Y44546D01*
X61893Y44591D01*
X62022Y44663D01*
X62087Y44701D01*
X62145Y44753D01*
X62152Y44760D01*
X62158Y44766D01*
X62178Y44786D01*
X62197Y44805D01*
X62223Y44837D01*
X62256Y44876D01*
X62288Y44922D01*
X62320Y44980D01*
X62359Y45038D01*
X62392Y45110D01*
X62430Y45187D01*
X62469Y45278D01*
X62502Y45369D01*
X62534Y45479D01*
X62566Y45589D01*
X62592Y45712D01*
X64283Y45427D01*
Y45414D01*
X64270Y45375D01*
X64250Y45317D01*
X64231Y45233D01*
X64199Y45135D01*
X64160Y45025D01*
X64114Y44902D01*
X64056Y44773D01*
X63991Y44630D01*
X63920Y44488D01*
X63836Y44339D01*
X63745Y44190D01*
X63642Y44047D01*
X63531Y43911D01*
X63408Y43782D01*
X63272Y43665D01*
X63266Y43659D01*
X63240Y43639D01*
X63195Y43613D01*
X63136Y43575D01*
X63059Y43529D01*
X62968Y43477D01*
X62864Y43425D01*
X62741Y43374D01*
X62605Y43315D01*
X62456Y43264D01*
X62294Y43212D01*
X62113Y43166D01*
X61925Y43128D01*
X61718Y43102D01*
X61498Y43082D01*
X61271Y43076D01*
X61206D01*
X61174Y43082D01*
X61135D01*
X61038Y43089D01*
X60915Y43102D01*
X60779Y43121D01*
X60623Y43154D01*
X60455Y43186D01*
X60273Y43238D01*
X60092Y43296D01*
X59898Y43367D01*
X59710Y43451D01*
X59522Y43555D01*
X59341Y43672D01*
X59166Y43814D01*
X58998Y43970D01*
X58991Y43983D01*
X58959Y44008D01*
X58920Y44060D01*
X58868Y44138D01*
X58803Y44229D01*
X58732Y44339D01*
X58654Y44468D01*
X58576Y44617D01*
X58499Y44786D01*
X58421Y44974D01*
X58350Y45181D01*
X58285Y45401D01*
X58233Y45641D01*
X58194Y45900D01*
X58162Y46172D01*
X58155Y46463D01*
Y46470D01*
Y46483D01*
Y46502D01*
Y46535D01*
X58162Y46573D01*
Y46619D01*
Y46670D01*
X58169Y46729D01*
X58181Y46865D01*
X58201Y47020D01*
X58227Y47189D01*
X58259Y47376D01*
X58305Y47577D01*
X58363Y47778D01*
X58434Y47985D01*
X58512Y48199D01*
X58609Y48400D01*
X58726Y48601D01*
X58855Y48788D01*
X59004Y48963D01*
X59017Y48976D01*
X59043Y49002D01*
X59095Y49048D01*
X59159Y49106D01*
X59244Y49171D01*
X59347Y49248D01*
X59470Y49332D01*
X59613Y49417D01*
X59768Y49495D01*
X59937Y49579D01*
X60125Y49656D01*
X60332Y49721D01*
X60552Y49780D01*
X60785Y49825D01*
X61038Y49851D01*
X61303Y49864D01*
X61420D01*
X61498Y49857D01*
D02*
G37*
G36*
X38647Y43225D02*
X36969D01*
X36963Y50278D01*
X35188Y43225D01*
X33446D01*
X31677Y50278D01*
Y43225D01*
X30000D01*
Y52189D01*
X32707D01*
X34327Y46068D01*
X35926Y52189D01*
X38647D01*
Y43225D01*
D02*
G37*
G36*
X93662D02*
X91946D01*
Y52189D01*
X93662D01*
Y43225D01*
D02*
G37*
G36*
X87710Y49857D02*
X87807D01*
X87917Y49851D01*
X88040Y49844D01*
X88170Y49831D01*
X88306Y49818D01*
X88448Y49799D01*
X88733Y49747D01*
X88869Y49721D01*
X89005Y49682D01*
X89129Y49637D01*
X89239Y49592D01*
X89245D01*
X89264Y49579D01*
X89290Y49566D01*
X89329Y49540D01*
X89375Y49514D01*
X89426Y49482D01*
X89550Y49404D01*
X89679Y49300D01*
X89809Y49184D01*
X89932Y49048D01*
X89984Y48976D01*
X90029Y48899D01*
Y48892D01*
X90042Y48879D01*
X90048Y48853D01*
X90068Y48814D01*
X90081Y48769D01*
X90100Y48704D01*
X90126Y48633D01*
X90145Y48549D01*
X90165Y48452D01*
X90191Y48335D01*
X90210Y48212D01*
X90223Y48070D01*
X90243Y47914D01*
X90249Y47746D01*
X90262Y47558D01*
Y47357D01*
X90236Y45356D01*
Y45349D01*
Y45317D01*
Y45272D01*
Y45213D01*
Y45142D01*
X90243Y45064D01*
Y44974D01*
X90249Y44876D01*
X90255Y44669D01*
X90268Y44462D01*
X90275Y44358D01*
X90288Y44261D01*
X90301Y44177D01*
X90314Y44093D01*
Y44086D01*
X90320Y44073D01*
Y44054D01*
X90333Y44021D01*
X90340Y43983D01*
X90353Y43937D01*
X90385Y43834D01*
X90424Y43704D01*
X90482Y43555D01*
X90547Y43393D01*
X90625Y43225D01*
X88928D01*
Y43231D01*
X88915Y43257D01*
X88902Y43296D01*
X88882Y43354D01*
X88856Y43425D01*
X88824Y43510D01*
X88792Y43613D01*
X88759Y43730D01*
Y43736D01*
X88753Y43756D01*
X88746Y43782D01*
X88733Y43814D01*
X88714Y43879D01*
X88708Y43905D01*
X88701Y43931D01*
X88695Y43924D01*
X88682Y43911D01*
X88656Y43892D01*
X88623Y43860D01*
X88584Y43827D01*
X88533Y43782D01*
X88481Y43736D01*
X88416Y43691D01*
X88280Y43587D01*
X88118Y43477D01*
X87943Y43380D01*
X87755Y43289D01*
X87749D01*
X87736Y43283D01*
X87704Y43270D01*
X87671Y43257D01*
X87619Y43238D01*
X87568Y43225D01*
X87503Y43205D01*
X87438Y43186D01*
X87360Y43160D01*
X87276Y43141D01*
X87095Y43108D01*
X86894Y43082D01*
X86687Y43076D01*
X86641D01*
X86589Y43082D01*
X86518D01*
X86434Y43095D01*
X86337Y43102D01*
X86233Y43121D01*
X86110Y43147D01*
X85987Y43173D01*
X85858Y43212D01*
X85728Y43251D01*
X85599Y43302D01*
X85469Y43367D01*
X85339Y43439D01*
X85216Y43523D01*
X85106Y43620D01*
X85100Y43626D01*
X85080Y43646D01*
X85055Y43678D01*
X85016Y43717D01*
X84970Y43769D01*
X84925Y43834D01*
X84873Y43911D01*
X84821Y43995D01*
X84763Y44093D01*
X84711Y44196D01*
X84666Y44306D01*
X84621Y44429D01*
X84582Y44559D01*
X84556Y44695D01*
X84536Y44844D01*
X84530Y44993D01*
Y44999D01*
Y45019D01*
Y45045D01*
X84536Y45084D01*
Y45135D01*
X84543Y45187D01*
X84549Y45252D01*
X84562Y45323D01*
X84595Y45472D01*
X84640Y45641D01*
X84705Y45809D01*
X84789Y45971D01*
X84795Y45978D01*
X84802Y45990D01*
X84815Y46010D01*
X84841Y46042D01*
X84899Y46120D01*
X84983Y46217D01*
X85087Y46321D01*
X85210Y46431D01*
X85359Y46541D01*
X85527Y46632D01*
X85534D01*
X85547Y46645D01*
X85579Y46658D01*
X85618Y46670D01*
X85663Y46690D01*
X85722Y46716D01*
X85793Y46742D01*
X85877Y46768D01*
X85968Y46800D01*
X86071Y46832D01*
X86181Y46865D01*
X86305Y46897D01*
X86434Y46936D01*
X86577Y46968D01*
X86732Y47001D01*
X86894Y47033D01*
X86907D01*
X86946Y47046D01*
X87010Y47053D01*
X87088Y47072D01*
X87185Y47091D01*
X87302Y47117D01*
X87425Y47143D01*
X87555Y47169D01*
X87833Y47241D01*
X88105Y47312D01*
X88235Y47344D01*
X88358Y47383D01*
X88468Y47422D01*
X88565Y47461D01*
Y47629D01*
Y47636D01*
Y47649D01*
Y47674D01*
X88559Y47707D01*
Y47752D01*
X88552Y47797D01*
X88533Y47901D01*
X88507Y48018D01*
X88461Y48134D01*
X88403Y48244D01*
X88364Y48290D01*
X88319Y48335D01*
X88306Y48342D01*
X88293Y48355D01*
X88267Y48368D01*
X88241Y48387D01*
X88202Y48400D01*
X88163Y48419D01*
X88112Y48445D01*
X88053Y48465D01*
X87982Y48484D01*
X87911Y48497D01*
X87827Y48516D01*
X87730Y48529D01*
X87626Y48542D01*
X87516Y48549D01*
X87315D01*
X87276Y48542D01*
X87231D01*
X87134Y48529D01*
X87017Y48503D01*
X86894Y48471D01*
X86777Y48426D01*
X86674Y48368D01*
X86661Y48361D01*
X86635Y48335D01*
X86583Y48283D01*
X86531Y48218D01*
X86467Y48134D01*
X86395Y48024D01*
X86330Y47888D01*
X86266Y47733D01*
X84705Y48011D01*
X84711Y48024D01*
X84718Y48050D01*
X84731Y48102D01*
X84756Y48167D01*
X84782Y48244D01*
X84821Y48335D01*
X84867Y48432D01*
X84912Y48536D01*
X84970Y48653D01*
X85042Y48763D01*
X85113Y48879D01*
X85197Y48996D01*
X85281Y49106D01*
X85385Y49216D01*
X85488Y49313D01*
X85605Y49404D01*
X85611Y49410D01*
X85637Y49423D01*
X85676Y49449D01*
X85728Y49475D01*
X85793Y49507D01*
X85877Y49546D01*
X85974Y49592D01*
X86091Y49637D01*
X86214Y49676D01*
X86356Y49721D01*
X86518Y49760D01*
X86687Y49792D01*
X86875Y49818D01*
X87075Y49844D01*
X87289Y49857D01*
X87522Y49864D01*
X87632D01*
X87710Y49857D01*
D02*
G37*
G36*
X68227D02*
X68324D01*
X68435Y49851D01*
X68558Y49844D01*
X68687Y49831D01*
X68823Y49818D01*
X68966Y49799D01*
X69251Y49747D01*
X69387Y49721D01*
X69523Y49682D01*
X69646Y49637D01*
X69756Y49592D01*
X69762D01*
X69782Y49579D01*
X69808Y49566D01*
X69847Y49540D01*
X69892Y49514D01*
X69944Y49482D01*
X70067Y49404D01*
X70196Y49300D01*
X70326Y49184D01*
X70449Y49048D01*
X70501Y48976D01*
X70546Y48899D01*
Y48892D01*
X70559Y48879D01*
X70565Y48853D01*
X70585Y48814D01*
X70598Y48769D01*
X70617Y48704D01*
X70643Y48633D01*
X70663Y48549D01*
X70682Y48452D01*
X70708Y48335D01*
X70727Y48212D01*
X70740Y48070D01*
X70760Y47914D01*
X70766Y47746D01*
X70779Y47558D01*
Y47357D01*
X70753Y45356D01*
Y45349D01*
Y45317D01*
Y45272D01*
Y45213D01*
Y45142D01*
X70760Y45064D01*
Y44974D01*
X70766Y44876D01*
X70773Y44669D01*
X70786Y44462D01*
X70792Y44358D01*
X70805Y44261D01*
X70818Y44177D01*
X70831Y44093D01*
Y44086D01*
X70837Y44073D01*
Y44054D01*
X70850Y44021D01*
X70857Y43983D01*
X70870Y43937D01*
X70902Y43834D01*
X70941Y43704D01*
X70999Y43555D01*
X71064Y43393D01*
X71142Y43225D01*
X69445D01*
Y43231D01*
X69432Y43257D01*
X69419Y43296D01*
X69400Y43354D01*
X69374Y43425D01*
X69341Y43510D01*
X69309Y43613D01*
X69276Y43730D01*
Y43736D01*
X69270Y43756D01*
X69264Y43782D01*
X69251Y43814D01*
X69231Y43879D01*
X69225Y43905D01*
X69218Y43931D01*
X69212Y43924D01*
X69199Y43911D01*
X69173Y43892D01*
X69141Y43860D01*
X69102Y43827D01*
X69050Y43782D01*
X68998Y43736D01*
X68933Y43691D01*
X68797Y43587D01*
X68635Y43477D01*
X68460Y43380D01*
X68273Y43289D01*
X68266D01*
X68253Y43283D01*
X68221Y43270D01*
X68188Y43257D01*
X68137Y43238D01*
X68085Y43225D01*
X68020Y43205D01*
X67955Y43186D01*
X67877Y43160D01*
X67793Y43141D01*
X67612Y43108D01*
X67411Y43082D01*
X67204Y43076D01*
X67158D01*
X67107Y43082D01*
X67035D01*
X66951Y43095D01*
X66854Y43102D01*
X66750Y43121D01*
X66627Y43147D01*
X66504Y43173D01*
X66375Y43212D01*
X66245Y43251D01*
X66116Y43302D01*
X65986Y43367D01*
X65857Y43439D01*
X65734Y43523D01*
X65623Y43620D01*
X65617Y43626D01*
X65598Y43646D01*
X65572Y43678D01*
X65533Y43717D01*
X65487Y43769D01*
X65442Y43834D01*
X65390Y43911D01*
X65339Y43995D01*
X65280Y44093D01*
X65228Y44196D01*
X65183Y44306D01*
X65138Y44429D01*
X65099Y44559D01*
X65073Y44695D01*
X65054Y44844D01*
X65047Y44993D01*
Y44999D01*
Y45019D01*
Y45045D01*
X65054Y45084D01*
Y45135D01*
X65060Y45187D01*
X65066Y45252D01*
X65079Y45323D01*
X65112Y45472D01*
X65157Y45641D01*
X65222Y45809D01*
X65306Y45971D01*
X65313Y45978D01*
X65319Y45990D01*
X65332Y46010D01*
X65358Y46042D01*
X65416Y46120D01*
X65500Y46217D01*
X65604Y46321D01*
X65727Y46431D01*
X65876Y46541D01*
X66045Y46632D01*
X66051D01*
X66064Y46645D01*
X66096Y46658D01*
X66135Y46670D01*
X66181Y46690D01*
X66239Y46716D01*
X66310Y46742D01*
X66394Y46768D01*
X66485Y46800D01*
X66589Y46832D01*
X66699Y46865D01*
X66822Y46897D01*
X66951Y46936D01*
X67094Y46968D01*
X67249Y47001D01*
X67411Y47033D01*
X67424D01*
X67463Y47046D01*
X67528Y47053D01*
X67606Y47072D01*
X67703Y47091D01*
X67819Y47117D01*
X67942Y47143D01*
X68072Y47169D01*
X68350Y47241D01*
X68622Y47312D01*
X68752Y47344D01*
X68875Y47383D01*
X68985Y47422D01*
X69082Y47461D01*
Y47629D01*
Y47636D01*
Y47649D01*
Y47674D01*
X69076Y47707D01*
Y47752D01*
X69069Y47797D01*
X69050Y47901D01*
X69024Y48018D01*
X68979Y48134D01*
X68920Y48244D01*
X68881Y48290D01*
X68836Y48335D01*
X68823Y48342D01*
X68810Y48355D01*
X68784Y48368D01*
X68758Y48387D01*
X68720Y48400D01*
X68681Y48419D01*
X68629Y48445D01*
X68570Y48465D01*
X68499Y48484D01*
X68428Y48497D01*
X68344Y48516D01*
X68247Y48529D01*
X68143Y48542D01*
X68033Y48549D01*
X67832D01*
X67793Y48542D01*
X67748D01*
X67651Y48529D01*
X67534Y48503D01*
X67411Y48471D01*
X67295Y48426D01*
X67191Y48368D01*
X67178Y48361D01*
X67152Y48335D01*
X67100Y48283D01*
X67048Y48218D01*
X66984Y48134D01*
X66912Y48024D01*
X66848Y47888D01*
X66783Y47733D01*
X65222Y48011D01*
X65228Y48024D01*
X65235Y48050D01*
X65248Y48102D01*
X65274Y48167D01*
X65300Y48244D01*
X65339Y48335D01*
X65384Y48432D01*
X65429Y48536D01*
X65487Y48653D01*
X65559Y48763D01*
X65630Y48879D01*
X65714Y48996D01*
X65798Y49106D01*
X65902Y49216D01*
X66006Y49313D01*
X66122Y49404D01*
X66129Y49410D01*
X66155Y49423D01*
X66193Y49449D01*
X66245Y49475D01*
X66310Y49507D01*
X66394Y49546D01*
X66491Y49592D01*
X66608Y49637D01*
X66731Y49676D01*
X66874Y49721D01*
X67035Y49760D01*
X67204Y49792D01*
X67392Y49818D01*
X67593Y49844D01*
X67806Y49857D01*
X68039Y49864D01*
X68149D01*
X68227Y49857D01*
D02*
G37*
G36*
X54302D02*
X54399D01*
X54509Y49851D01*
X54632Y49844D01*
X54762Y49831D01*
X54898Y49818D01*
X55040Y49799D01*
X55325Y49747D01*
X55461Y49721D01*
X55597Y49682D01*
X55720Y49637D01*
X55830Y49592D01*
X55837D01*
X55856Y49579D01*
X55882Y49566D01*
X55921Y49540D01*
X55966Y49514D01*
X56018Y49482D01*
X56141Y49404D01*
X56271Y49300D01*
X56400Y49184D01*
X56523Y49048D01*
X56575Y48976D01*
X56620Y48899D01*
Y48892D01*
X56633Y48879D01*
X56640Y48853D01*
X56659Y48814D01*
X56672Y48769D01*
X56692Y48704D01*
X56718Y48633D01*
X56737Y48549D01*
X56757Y48452D01*
X56782Y48335D01*
X56802Y48212D01*
X56815Y48070D01*
X56834Y47914D01*
X56841Y47746D01*
X56854Y47558D01*
Y47357D01*
X56828Y45356D01*
Y45349D01*
Y45317D01*
Y45272D01*
Y45213D01*
Y45142D01*
X56834Y45064D01*
Y44974D01*
X56841Y44876D01*
X56847Y44669D01*
X56860Y44462D01*
X56867Y44358D01*
X56880Y44261D01*
X56892Y44177D01*
X56905Y44093D01*
Y44086D01*
X56912Y44073D01*
Y44054D01*
X56925Y44021D01*
X56931Y43983D01*
X56944Y43937D01*
X56977Y43834D01*
X57016Y43704D01*
X57074Y43555D01*
X57139Y43393D01*
X57216Y43225D01*
X55519D01*
Y43231D01*
X55506Y43257D01*
X55493Y43296D01*
X55474Y43354D01*
X55448Y43425D01*
X55416Y43510D01*
X55383Y43613D01*
X55351Y43730D01*
Y43736D01*
X55345Y43756D01*
X55338Y43782D01*
X55325Y43814D01*
X55306Y43879D01*
X55299Y43905D01*
X55293Y43931D01*
X55286Y43924D01*
X55273Y43911D01*
X55247Y43892D01*
X55215Y43860D01*
X55176Y43827D01*
X55124Y43782D01*
X55072Y43736D01*
X55008Y43691D01*
X54872Y43587D01*
X54710Y43477D01*
X54535Y43380D01*
X54347Y43289D01*
X54341D01*
X54328Y43283D01*
X54295Y43270D01*
X54263Y43257D01*
X54211Y43238D01*
X54159Y43225D01*
X54094Y43205D01*
X54030Y43186D01*
X53952Y43160D01*
X53868Y43141D01*
X53686Y43108D01*
X53486Y43082D01*
X53278Y43076D01*
X53233D01*
X53181Y43082D01*
X53110D01*
X53026Y43095D01*
X52929Y43102D01*
X52825Y43121D01*
X52702Y43147D01*
X52579Y43173D01*
X52449Y43212D01*
X52320Y43251D01*
X52190Y43302D01*
X52061Y43367D01*
X51931Y43439D01*
X51808Y43523D01*
X51698Y43620D01*
X51691Y43626D01*
X51672Y43646D01*
X51646Y43678D01*
X51607Y43717D01*
X51562Y43769D01*
X51517Y43834D01*
X51465Y43911D01*
X51413Y43995D01*
X51355Y44093D01*
X51303Y44196D01*
X51258Y44306D01*
X51212Y44429D01*
X51173Y44559D01*
X51147Y44695D01*
X51128Y44844D01*
X51122Y44993D01*
Y44999D01*
Y45019D01*
Y45045D01*
X51128Y45084D01*
Y45135D01*
X51134Y45187D01*
X51141Y45252D01*
X51154Y45323D01*
X51186Y45472D01*
X51232Y45641D01*
X51296Y45809D01*
X51381Y45971D01*
X51387Y45978D01*
X51393Y45990D01*
X51406Y46010D01*
X51432Y46042D01*
X51491Y46120D01*
X51575Y46217D01*
X51679Y46321D01*
X51802Y46431D01*
X51950Y46541D01*
X52119Y46632D01*
X52125D01*
X52138Y46645D01*
X52171Y46658D01*
X52210Y46670D01*
X52255Y46690D01*
X52313Y46716D01*
X52385Y46742D01*
X52469Y46768D01*
X52559Y46800D01*
X52663Y46832D01*
X52773Y46865D01*
X52896Y46897D01*
X53026Y46936D01*
X53168Y46968D01*
X53324Y47001D01*
X53486Y47033D01*
X53499D01*
X53537Y47046D01*
X53602Y47053D01*
X53680Y47072D01*
X53777Y47091D01*
X53894Y47117D01*
X54017Y47143D01*
X54146Y47169D01*
X54425Y47241D01*
X54697Y47312D01*
X54826Y47344D01*
X54949Y47383D01*
X55059Y47422D01*
X55157Y47461D01*
Y47629D01*
Y47636D01*
Y47649D01*
Y47674D01*
X55150Y47707D01*
Y47752D01*
X55144Y47797D01*
X55124Y47901D01*
X55098Y48018D01*
X55053Y48134D01*
X54995Y48244D01*
X54956Y48290D01*
X54910Y48335D01*
X54898Y48342D01*
X54885Y48355D01*
X54859Y48368D01*
X54833Y48387D01*
X54794Y48400D01*
X54755Y48419D01*
X54703Y48445D01*
X54645Y48465D01*
X54574Y48484D01*
X54503Y48497D01*
X54418Y48516D01*
X54321Y48529D01*
X54218Y48542D01*
X54107Y48549D01*
X53907D01*
X53868Y48542D01*
X53822D01*
X53725Y48529D01*
X53609Y48503D01*
X53486Y48471D01*
X53369Y48426D01*
X53265Y48368D01*
X53252Y48361D01*
X53226Y48335D01*
X53175Y48283D01*
X53123Y48218D01*
X53058Y48134D01*
X52987Y48024D01*
X52922Y47888D01*
X52857Y47733D01*
X51296Y48011D01*
X51303Y48024D01*
X51309Y48050D01*
X51322Y48102D01*
X51348Y48167D01*
X51374Y48244D01*
X51413Y48335D01*
X51458Y48432D01*
X51504Y48536D01*
X51562Y48653D01*
X51633Y48763D01*
X51704Y48879D01*
X51789Y48996D01*
X51873Y49106D01*
X51976Y49216D01*
X52080Y49313D01*
X52197Y49404D01*
X52203Y49410D01*
X52229Y49423D01*
X52268Y49449D01*
X52320Y49475D01*
X52385Y49507D01*
X52469Y49546D01*
X52566Y49592D01*
X52682Y49637D01*
X52806Y49676D01*
X52948Y49721D01*
X53110Y49760D01*
X53278Y49792D01*
X53466Y49818D01*
X53667Y49844D01*
X53881Y49857D01*
X54114Y49864D01*
X54224D01*
X54302Y49857D01*
D02*
G37*
G36*
X49198Y49721D02*
X50370D01*
Y48355D01*
X49198D01*
Y45731D01*
Y45725D01*
Y45699D01*
Y45660D01*
Y45602D01*
Y45543D01*
Y45472D01*
X49204Y45317D01*
Y45155D01*
X49211Y45077D01*
Y44999D01*
X49217Y44935D01*
Y44876D01*
X49224Y44831D01*
X49230Y44799D01*
Y44792D01*
X49237Y44779D01*
X49250Y44753D01*
X49263Y44721D01*
X49282Y44689D01*
X49308Y44656D01*
X49340Y44617D01*
X49379Y44585D01*
X49386Y44578D01*
X49399Y44572D01*
X49425Y44559D01*
X49463Y44546D01*
X49502Y44527D01*
X49554Y44514D01*
X49612Y44507D01*
X49671Y44501D01*
X49716D01*
X49768Y44507D01*
X49845Y44520D01*
X49943Y44540D01*
X50066Y44572D01*
X50202Y44611D01*
X50364Y44663D01*
X50513Y43328D01*
X50506D01*
X50487Y43315D01*
X50454Y43302D01*
X50409Y43289D01*
X50351Y43270D01*
X50279Y43251D01*
X50202Y43225D01*
X50118Y43205D01*
X50020Y43179D01*
X49917Y43154D01*
X49807Y43134D01*
X49684Y43115D01*
X49431Y43089D01*
X49152Y43076D01*
X49075D01*
X49036Y43082D01*
X48991D01*
X48874Y43095D01*
X48744Y43115D01*
X48608Y43141D01*
X48459Y43179D01*
X48317Y43231D01*
X48310D01*
X48304Y43238D01*
X48285Y43244D01*
X48259Y43257D01*
X48194Y43296D01*
X48110Y43341D01*
X48019Y43400D01*
X47935Y43464D01*
X47844Y43542D01*
X47773Y43633D01*
X47766Y43646D01*
X47747Y43678D01*
X47715Y43736D01*
X47676Y43808D01*
X47637Y43905D01*
X47598Y44021D01*
X47559Y44157D01*
X47533Y44306D01*
Y44313D01*
Y44319D01*
X47527Y44339D01*
Y44365D01*
X47520Y44404D01*
Y44449D01*
X47514Y44507D01*
X47507Y44572D01*
X47501Y44643D01*
Y44734D01*
X47494Y44831D01*
X47488Y44941D01*
Y45064D01*
X47481Y45207D01*
Y45356D01*
Y45518D01*
Y48355D01*
X46691D01*
Y49721D01*
X47481D01*
Y51010D01*
X49198Y52021D01*
Y49721D01*
D02*
G37*
G36*
X43012Y49857D02*
X43051D01*
X43155Y49851D01*
X43278Y49838D01*
X43414Y49812D01*
X43576Y49786D01*
X43744Y49747D01*
X43919Y49695D01*
X44107Y49630D01*
X44295Y49553D01*
X44489Y49462D01*
X44677Y49352D01*
X44858Y49222D01*
X45033Y49074D01*
X45195Y48905D01*
X45202Y48892D01*
X45234Y48860D01*
X45273Y48801D01*
X45325Y48724D01*
X45389Y48620D01*
X45461Y48497D01*
X45532Y48348D01*
X45610Y48180D01*
X45687Y47985D01*
X45765Y47765D01*
X45830Y47526D01*
X45894Y47260D01*
X45940Y46975D01*
X45979Y46664D01*
X45998Y46327D01*
X46005Y45971D01*
X41698D01*
Y45964D01*
Y45939D01*
X41704Y45900D01*
Y45848D01*
X41710Y45783D01*
X41723Y45705D01*
X41736Y45628D01*
X41756Y45537D01*
X41801Y45343D01*
X41834Y45246D01*
X41872Y45148D01*
X41924Y45051D01*
X41976Y44954D01*
X42034Y44863D01*
X42105Y44779D01*
X42112Y44773D01*
X42125Y44760D01*
X42144Y44740D01*
X42177Y44714D01*
X42216Y44682D01*
X42267Y44643D01*
X42319Y44611D01*
X42384Y44572D01*
X42449Y44527D01*
X42526Y44494D01*
X42695Y44423D01*
X42792Y44397D01*
X42889Y44378D01*
X42993Y44365D01*
X43103Y44358D01*
X43142D01*
X43174Y44365D01*
X43246Y44371D01*
X43343Y44384D01*
X43446Y44410D01*
X43563Y44449D01*
X43673Y44501D01*
X43783Y44572D01*
X43790D01*
X43796Y44585D01*
X43828Y44617D01*
X43880Y44669D01*
X43938Y44747D01*
X44010Y44844D01*
X44081Y44967D01*
X44146Y45110D01*
X44204Y45284D01*
X45914Y44999D01*
X45908Y44987D01*
X45901Y44961D01*
X45882Y44909D01*
X45849Y44844D01*
X45817Y44766D01*
X45771Y44676D01*
X45720Y44572D01*
X45655Y44468D01*
X45590Y44352D01*
X45512Y44235D01*
X45422Y44112D01*
X45331Y43995D01*
X45227Y43879D01*
X45117Y43762D01*
X44994Y43659D01*
X44865Y43562D01*
X44858Y43555D01*
X44832Y43542D01*
X44794Y43516D01*
X44735Y43484D01*
X44664Y43451D01*
X44586Y43406D01*
X44483Y43367D01*
X44373Y43322D01*
X44249Y43277D01*
X44120Y43231D01*
X43971Y43186D01*
X43815Y43154D01*
X43647Y43121D01*
X43466Y43095D01*
X43278Y43082D01*
X43084Y43076D01*
X43012D01*
X42967Y43082D01*
X42922D01*
X42870Y43089D01*
X42805Y43095D01*
X42663Y43108D01*
X42507Y43134D01*
X42326Y43166D01*
X42131Y43212D01*
X41931Y43270D01*
X41723Y43348D01*
X41516Y43432D01*
X41309Y43542D01*
X41108Y43665D01*
X40920Y43814D01*
X40739Y43983D01*
X40577Y44177D01*
X40571Y44190D01*
X40551Y44216D01*
X40519Y44268D01*
X40480Y44339D01*
X40428Y44423D01*
X40376Y44527D01*
X40318Y44650D01*
X40260Y44792D01*
X40195Y44948D01*
X40136Y45116D01*
X40085Y45297D01*
X40039Y45498D01*
X39994Y45705D01*
X39962Y45932D01*
X39942Y46172D01*
X39936Y46418D01*
Y46424D01*
Y46437D01*
Y46457D01*
Y46489D01*
X39942Y46528D01*
Y46573D01*
Y46625D01*
X39949Y46683D01*
X39962Y46820D01*
X39981Y46975D01*
X40007Y47150D01*
X40039Y47338D01*
X40085Y47538D01*
X40143Y47746D01*
X40208Y47953D01*
X40292Y48167D01*
X40389Y48374D01*
X40499Y48575D01*
X40629Y48763D01*
X40778Y48944D01*
X40791Y48957D01*
X40817Y48983D01*
X40862Y49028D01*
X40927Y49086D01*
X41011Y49158D01*
X41115Y49235D01*
X41231Y49320D01*
X41361Y49404D01*
X41510Y49488D01*
X41672Y49572D01*
X41846Y49650D01*
X42034Y49721D01*
X42235Y49780D01*
X42449Y49825D01*
X42675Y49851D01*
X42915Y49864D01*
X42980D01*
X43012Y49857D01*
D02*
G37*
G36*
X47112Y30000D02*
X45143D01*
X44366Y32034D01*
X40778D01*
X40039Y30000D01*
X38122D01*
X41600Y38964D01*
X43524D01*
X47112Y30000D01*
D02*
G37*
G36*
X34035Y38958D02*
X34158D01*
X34294Y38951D01*
X34443Y38945D01*
X34605Y38932D01*
X34773Y38919D01*
X34942Y38906D01*
X35292Y38860D01*
X35454Y38835D01*
X35609Y38802D01*
X35758Y38763D01*
X35888Y38718D01*
X35894D01*
X35914Y38705D01*
X35952Y38692D01*
X35998Y38673D01*
X36049Y38647D01*
X36114Y38608D01*
X36186Y38569D01*
X36263Y38524D01*
X36347Y38465D01*
X36432Y38401D01*
X36516Y38329D01*
X36607Y38252D01*
X36691Y38168D01*
X36775Y38070D01*
X36853Y37967D01*
X36930Y37857D01*
X36937Y37850D01*
X36950Y37831D01*
X36969Y37792D01*
X36995Y37747D01*
X37021Y37688D01*
X37053Y37623D01*
X37092Y37539D01*
X37131Y37448D01*
X37164Y37351D01*
X37202Y37241D01*
X37235Y37125D01*
X37267Y37002D01*
X37287Y36872D01*
X37306Y36736D01*
X37319Y36600D01*
X37325Y36451D01*
Y36438D01*
Y36406D01*
X37319Y36354D01*
Y36283D01*
X37306Y36198D01*
X37293Y36095D01*
X37274Y35985D01*
X37254Y35862D01*
X37222Y35732D01*
X37183Y35596D01*
X37131Y35460D01*
X37073Y35318D01*
X37008Y35182D01*
X36924Y35039D01*
X36833Y34910D01*
X36730Y34780D01*
X36723Y34773D01*
X36704Y34754D01*
X36665Y34722D01*
X36620Y34676D01*
X36555Y34625D01*
X36484Y34566D01*
X36393Y34502D01*
X36289Y34430D01*
X36166Y34359D01*
X36037Y34294D01*
X35894Y34223D01*
X35732Y34158D01*
X35557Y34093D01*
X35369Y34042D01*
X35169Y33996D01*
X34955Y33957D01*
X34961Y33951D01*
X34981Y33944D01*
X35013Y33925D01*
X35052Y33899D01*
X35104Y33867D01*
X35162Y33828D01*
X35227Y33783D01*
X35298Y33737D01*
X35454Y33621D01*
X35615Y33491D01*
X35777Y33349D01*
X35926Y33200D01*
X35933Y33193D01*
X35946Y33180D01*
X35965Y33154D01*
X35998Y33122D01*
X36037Y33077D01*
X36082Y33018D01*
X36134Y32947D01*
X36198Y32863D01*
X36270Y32772D01*
X36347Y32668D01*
X36432Y32545D01*
X36522Y32416D01*
X36620Y32267D01*
X36723Y32111D01*
X36840Y31937D01*
X36956Y31749D01*
X38051Y30000D01*
X35881D01*
X34579Y31950D01*
X34573Y31962D01*
X34547Y31995D01*
X34515Y32047D01*
X34469Y32118D01*
X34411Y32202D01*
X34346Y32293D01*
X34275Y32397D01*
X34197Y32507D01*
X34035Y32727D01*
X33957Y32837D01*
X33880Y32947D01*
X33809Y33044D01*
X33737Y33128D01*
X33672Y33206D01*
X33621Y33264D01*
X33608Y33277D01*
X33575Y33310D01*
X33523Y33355D01*
X33459Y33413D01*
X33375Y33478D01*
X33284Y33536D01*
X33187Y33595D01*
X33077Y33640D01*
X33064Y33647D01*
X33044Y33653D01*
X33025Y33660D01*
X32992Y33666D01*
X32954Y33672D01*
X32908Y33685D01*
X32856Y33692D01*
X32798Y33705D01*
X32733Y33711D01*
X32656Y33718D01*
X32571Y33731D01*
X32487Y33737D01*
X32390D01*
X32280Y33744D01*
X31807D01*
Y30000D01*
X30000D01*
Y38964D01*
X33938D01*
X34035Y38958D01*
D02*
G37*
G36*
X34165Y17655D02*
X32617D01*
X30000Y24152D01*
X31801D01*
X33025Y20836D01*
X33381Y19728D01*
Y19735D01*
X33387Y19748D01*
X33394Y19767D01*
X33407Y19799D01*
X33426Y19871D01*
X33459Y19955D01*
X33485Y20052D01*
X33517Y20143D01*
X33536Y20220D01*
X33549Y20259D01*
X33556Y20285D01*
X33562Y20298D01*
X33569Y20330D01*
X33588Y20389D01*
X33614Y20454D01*
X33640Y20538D01*
X33672Y20635D01*
X33705Y20732D01*
X33744Y20836D01*
X34974Y24152D01*
X36742D01*
X34165Y17655D01*
D02*
G37*
G36*
X56912D02*
X55195D01*
Y19372D01*
X56912D01*
Y17655D01*
D02*
G37*
G36*
X46471D02*
X44755D01*
Y19372D01*
X46471D01*
Y17655D01*
D02*
G37*
G36*
X41821D02*
X40104D01*
Y24126D01*
X40091Y24113D01*
X40059Y24087D01*
X40007Y24042D01*
X39936Y23984D01*
X39845Y23912D01*
X39735Y23828D01*
X39612Y23731D01*
X39469Y23634D01*
X39314Y23530D01*
X39146Y23420D01*
X38964Y23310D01*
X38770Y23206D01*
X38563Y23103D01*
X38342Y22999D01*
X38116Y22908D01*
X37882Y22824D01*
Y24385D01*
X37889D01*
X37915Y24398D01*
X37947Y24411D01*
X37999Y24430D01*
X38064Y24456D01*
X38135Y24482D01*
X38219Y24521D01*
X38317Y24566D01*
X38420Y24625D01*
X38530Y24683D01*
X38653Y24748D01*
X38776Y24825D01*
X38912Y24910D01*
X39048Y25000D01*
X39191Y25104D01*
X39340Y25214D01*
X39346Y25221D01*
X39372Y25240D01*
X39418Y25279D01*
X39469Y25324D01*
X39534Y25382D01*
X39605Y25454D01*
X39683Y25531D01*
X39774Y25622D01*
X39858Y25726D01*
X39949Y25836D01*
X40039Y25952D01*
X40130Y26082D01*
X40214Y26212D01*
X40292Y26354D01*
X40363Y26503D01*
X40422Y26652D01*
X41821D01*
Y17655D01*
D02*
G37*
G36*
X61329Y26646D02*
X61420Y26639D01*
X61530Y26626D01*
X61660Y26600D01*
X61796Y26574D01*
X61951Y26535D01*
X62106Y26484D01*
X62275Y26425D01*
X62443Y26348D01*
X62612Y26257D01*
X62780Y26153D01*
X62942Y26030D01*
X63098Y25881D01*
X63240Y25719D01*
X63253Y25706D01*
X63259Y25693D01*
X63279Y25668D01*
X63298Y25635D01*
X63324Y25603D01*
X63350Y25557D01*
X63376Y25506D01*
X63408Y25454D01*
X63447Y25389D01*
X63480Y25318D01*
X63519Y25240D01*
X63557Y25149D01*
X63596Y25059D01*
X63642Y24962D01*
X63680Y24851D01*
X63719Y24735D01*
X63765Y24612D01*
X63804Y24482D01*
X63842Y24346D01*
X63881Y24197D01*
X63914Y24048D01*
X63952Y23886D01*
X63985Y23718D01*
X64011Y23537D01*
X64037Y23355D01*
X64062Y23161D01*
X64082Y22960D01*
X64101Y22753D01*
X64114Y22533D01*
X64121Y22306D01*
Y22073D01*
Y22066D01*
Y22047D01*
Y22008D01*
Y21963D01*
Y21904D01*
X64114Y21833D01*
Y21749D01*
X64108Y21658D01*
X64101Y21555D01*
X64095Y21451D01*
X64088Y21334D01*
X64075Y21211D01*
X64050Y20946D01*
X64011Y20661D01*
X63965Y20363D01*
X63907Y20058D01*
X63836Y19754D01*
X63752Y19456D01*
X63648Y19165D01*
X63531Y18893D01*
X63467Y18763D01*
X63395Y18640D01*
X63318Y18523D01*
X63240Y18413D01*
X63233Y18400D01*
X63208Y18374D01*
X63162Y18329D01*
X63104Y18271D01*
X63033Y18199D01*
X62942Y18122D01*
X62832Y18044D01*
X62709Y17960D01*
X62573Y17869D01*
X62424Y17792D01*
X62256Y17714D01*
X62074Y17643D01*
X61880Y17584D01*
X61666Y17539D01*
X61446Y17513D01*
X61206Y17500D01*
X61148D01*
X61083Y17507D01*
X60992Y17513D01*
X60876Y17532D01*
X60753Y17552D01*
X60604Y17584D01*
X60455Y17623D01*
X60286Y17681D01*
X60118Y17746D01*
X59943Y17824D01*
X59762Y17921D01*
X59587Y18038D01*
X59419Y18174D01*
X59250Y18329D01*
X59095Y18504D01*
X59088Y18517D01*
X59062Y18549D01*
X59043Y18582D01*
X59023Y18614D01*
X58998Y18653D01*
X58972Y18698D01*
X58939Y18757D01*
X58913Y18815D01*
X58875Y18886D01*
X58842Y18957D01*
X58810Y19042D01*
X58771Y19126D01*
X58732Y19223D01*
X58700Y19326D01*
X58661Y19437D01*
X58622Y19560D01*
X58583Y19683D01*
X58551Y19819D01*
X58518Y19961D01*
X58486Y20110D01*
X58453Y20272D01*
X58421Y20440D01*
X58395Y20615D01*
X58369Y20797D01*
X58350Y20991D01*
X58330Y21192D01*
X58317Y21399D01*
X58305Y21619D01*
X58298Y21846D01*
Y22086D01*
Y22092D01*
Y22112D01*
Y22150D01*
Y22196D01*
X58305Y22254D01*
Y22325D01*
Y22410D01*
X58311Y22500D01*
X58317Y22597D01*
X58324Y22708D01*
X58337Y22824D01*
X58343Y22947D01*
X58369Y23206D01*
X58408Y23491D01*
X58453Y23789D01*
X58512Y24087D01*
X58583Y24392D01*
X58667Y24696D01*
X58764Y24981D01*
X58881Y25253D01*
X58952Y25382D01*
X59017Y25506D01*
X59095Y25622D01*
X59172Y25732D01*
X59179Y25745D01*
X59205Y25771D01*
X59250Y25817D01*
X59308Y25875D01*
X59380Y25946D01*
X59470Y26024D01*
X59580Y26108D01*
X59703Y26192D01*
X59840Y26276D01*
X59988Y26360D01*
X60157Y26438D01*
X60338Y26509D01*
X60533Y26568D01*
X60746Y26613D01*
X60967Y26639D01*
X61206Y26652D01*
X61265D01*
X61329Y26646D01*
D02*
G37*
G36*
X50888D02*
X50979Y26639D01*
X51089Y26626D01*
X51219Y26600D01*
X51355Y26574D01*
X51510Y26535D01*
X51666Y26484D01*
X51834Y26425D01*
X52002Y26348D01*
X52171Y26257D01*
X52339Y26153D01*
X52501Y26030D01*
X52656Y25881D01*
X52799Y25719D01*
X52812Y25706D01*
X52818Y25693D01*
X52838Y25668D01*
X52857Y25635D01*
X52883Y25603D01*
X52909Y25557D01*
X52935Y25506D01*
X52967Y25454D01*
X53006Y25389D01*
X53039Y25318D01*
X53078Y25240D01*
X53116Y25149D01*
X53155Y25059D01*
X53201Y24962D01*
X53239Y24851D01*
X53278Y24735D01*
X53324Y24612D01*
X53362Y24482D01*
X53401Y24346D01*
X53440Y24197D01*
X53473Y24048D01*
X53512Y23886D01*
X53544Y23718D01*
X53570Y23537D01*
X53596Y23355D01*
X53622Y23161D01*
X53641Y22960D01*
X53660Y22753D01*
X53673Y22533D01*
X53680Y22306D01*
Y22073D01*
Y22066D01*
Y22047D01*
Y22008D01*
Y21963D01*
Y21904D01*
X53673Y21833D01*
Y21749D01*
X53667Y21658D01*
X53660Y21555D01*
X53654Y21451D01*
X53647Y21334D01*
X53635Y21211D01*
X53609Y20946D01*
X53570Y20661D01*
X53524Y20363D01*
X53466Y20058D01*
X53395Y19754D01*
X53311Y19456D01*
X53207Y19165D01*
X53091Y18893D01*
X53026Y18763D01*
X52955Y18640D01*
X52877Y18523D01*
X52799Y18413D01*
X52793Y18400D01*
X52767Y18374D01*
X52721Y18329D01*
X52663Y18271D01*
X52592Y18199D01*
X52501Y18122D01*
X52391Y18044D01*
X52268Y17960D01*
X52132Y17869D01*
X51983Y17792D01*
X51814Y17714D01*
X51633Y17643D01*
X51439Y17584D01*
X51225Y17539D01*
X51005Y17513D01*
X50765Y17500D01*
X50707D01*
X50642Y17507D01*
X50552Y17513D01*
X50435Y17532D01*
X50312Y17552D01*
X50163Y17584D01*
X50014Y17623D01*
X49845Y17681D01*
X49677Y17746D01*
X49502Y17824D01*
X49321Y17921D01*
X49146Y18038D01*
X48978Y18174D01*
X48809Y18329D01*
X48654Y18504D01*
X48647Y18517D01*
X48621Y18549D01*
X48602Y18582D01*
X48583Y18614D01*
X48557Y18653D01*
X48531Y18698D01*
X48498Y18757D01*
X48472Y18815D01*
X48433Y18886D01*
X48401Y18957D01*
X48369Y19042D01*
X48330Y19126D01*
X48291Y19223D01*
X48259Y19326D01*
X48220Y19437D01*
X48181Y19560D01*
X48142Y19683D01*
X48110Y19819D01*
X48077Y19961D01*
X48045Y20110D01*
X48012Y20272D01*
X47980Y20440D01*
X47954Y20615D01*
X47928Y20797D01*
X47909Y20991D01*
X47889Y21192D01*
X47877Y21399D01*
X47864Y21619D01*
X47857Y21846D01*
Y22086D01*
Y22092D01*
Y22112D01*
Y22150D01*
Y22196D01*
X47864Y22254D01*
Y22325D01*
Y22410D01*
X47870Y22500D01*
X47877Y22597D01*
X47883Y22708D01*
X47896Y22824D01*
X47902Y22947D01*
X47928Y23206D01*
X47967Y23491D01*
X48012Y23789D01*
X48071Y24087D01*
X48142Y24392D01*
X48226Y24696D01*
X48323Y24981D01*
X48440Y25253D01*
X48511Y25382D01*
X48576Y25506D01*
X48654Y25622D01*
X48731Y25732D01*
X48738Y25745D01*
X48764Y25771D01*
X48809Y25817D01*
X48868Y25875D01*
X48939Y25946D01*
X49029Y26024D01*
X49139Y26108D01*
X49263Y26192D01*
X49399Y26276D01*
X49548Y26360D01*
X49716Y26438D01*
X49897Y26509D01*
X50092Y26568D01*
X50305Y26613D01*
X50526Y26639D01*
X50765Y26652D01*
X50823D01*
X50888Y26646D01*
D02*
G37*
%LPC*%
G36*
X69574Y61942D02*
X69516D01*
X69471Y61936D01*
X69419Y61929D01*
X69361Y61916D01*
X69289Y61903D01*
X69218Y61884D01*
X69141Y61858D01*
X69056Y61825D01*
X68972Y61786D01*
X68888Y61735D01*
X68804Y61683D01*
X68720Y61618D01*
X68635Y61540D01*
X68558Y61456D01*
X68551Y61450D01*
X68538Y61437D01*
X68519Y61404D01*
X68499Y61365D01*
X68467Y61314D01*
X68435Y61255D01*
X68396Y61178D01*
X68363Y61094D01*
X68324Y60996D01*
X68285Y60886D01*
X68253Y60770D01*
X68227Y60634D01*
X68201Y60491D01*
X68182Y60336D01*
X68169Y60174D01*
X68162Y59992D01*
Y59979D01*
Y59947D01*
Y59895D01*
X68169Y59824D01*
X68175Y59740D01*
X68182Y59643D01*
X68195Y59532D01*
X68214Y59416D01*
X68260Y59170D01*
X68292Y59047D01*
X68331Y58924D01*
X68376Y58801D01*
X68428Y58684D01*
X68486Y58580D01*
X68558Y58483D01*
X68564Y58477D01*
X68577Y58464D01*
X68596Y58438D01*
X68629Y58405D01*
X68668Y58373D01*
X68713Y58334D01*
X68771Y58289D01*
X68830Y58244D01*
X68901Y58198D01*
X68979Y58153D01*
X69147Y58082D01*
X69238Y58049D01*
X69335Y58023D01*
X69438Y58010D01*
X69549Y58004D01*
X69574D01*
X69607Y58010D01*
X69652D01*
X69710Y58017D01*
X69769Y58030D01*
X69840Y58043D01*
X69918Y58069D01*
X70002Y58095D01*
X70086Y58127D01*
X70170Y58166D01*
X70261Y58211D01*
X70352Y58270D01*
X70442Y58334D01*
X70527Y58412D01*
X70611Y58496D01*
X70617Y58503D01*
X70630Y58522D01*
X70650Y58548D01*
X70682Y58587D01*
X70714Y58639D01*
X70747Y58703D01*
X70786Y58775D01*
X70831Y58865D01*
X70870Y58962D01*
X70909Y59066D01*
X70941Y59189D01*
X70980Y59319D01*
X71006Y59461D01*
X71025Y59617D01*
X71038Y59779D01*
X71045Y59953D01*
Y59967D01*
Y59999D01*
Y60051D01*
X71038Y60115D01*
X71032Y60200D01*
X71025Y60297D01*
X71012Y60400D01*
X70993Y60517D01*
X70941Y60763D01*
X70909Y60886D01*
X70870Y61009D01*
X70818Y61126D01*
X70760Y61242D01*
X70695Y61353D01*
X70624Y61450D01*
X70617Y61456D01*
X70604Y61469D01*
X70578Y61495D01*
X70553Y61527D01*
X70507Y61566D01*
X70462Y61605D01*
X70403Y61651D01*
X70339Y61696D01*
X70268Y61741D01*
X70183Y61786D01*
X70099Y61825D01*
X70008Y61864D01*
X69905Y61897D01*
X69801Y61922D01*
X69691Y61936D01*
X69574Y61942D01*
D02*
G37*
G36*
X80436Y48503D02*
X80378D01*
X80333Y48497D01*
X80281Y48491D01*
X80216Y48478D01*
X80145Y48465D01*
X80067Y48445D01*
X79990Y48419D01*
X79905Y48380D01*
X79815Y48342D01*
X79730Y48296D01*
X79640Y48238D01*
X79556Y48173D01*
X79471Y48095D01*
X79387Y48011D01*
X79381Y48005D01*
X79368Y47992D01*
X79348Y47959D01*
X79322Y47921D01*
X79290Y47869D01*
X79258Y47810D01*
X79219Y47733D01*
X79180Y47649D01*
X79141Y47551D01*
X79102Y47448D01*
X79070Y47331D01*
X79037Y47202D01*
X79011Y47059D01*
X78992Y46910D01*
X78979Y46748D01*
X78973Y46573D01*
Y46560D01*
Y46528D01*
Y46470D01*
X78979Y46392D01*
X78986Y46301D01*
X78998Y46198D01*
X79011Y46088D01*
X79024Y45958D01*
X79076Y45699D01*
X79115Y45563D01*
X79154Y45427D01*
X79206Y45297D01*
X79264Y45174D01*
X79329Y45058D01*
X79406Y44954D01*
X79413Y44948D01*
X79426Y44935D01*
X79452Y44909D01*
X79484Y44876D01*
X79530Y44831D01*
X79575Y44792D01*
X79633Y44740D01*
X79704Y44695D01*
X79776Y44650D01*
X79860Y44598D01*
X79944Y44559D01*
X80035Y44520D01*
X80138Y44481D01*
X80242Y44455D01*
X80352Y44442D01*
X80469Y44436D01*
X80495D01*
X80527Y44442D01*
X80572D01*
X80618Y44449D01*
X80682Y44462D01*
X80747Y44475D01*
X80819Y44494D01*
X80896Y44520D01*
X80981Y44552D01*
X81065Y44591D01*
X81149Y44637D01*
X81233Y44695D01*
X81317Y44760D01*
X81395Y44831D01*
X81473Y44915D01*
X81479Y44922D01*
X81492Y44941D01*
X81512Y44967D01*
X81538Y45006D01*
X81563Y45058D01*
X81602Y45122D01*
X81635Y45200D01*
X81673Y45291D01*
X81712Y45395D01*
X81745Y45511D01*
X81784Y45641D01*
X81810Y45783D01*
X81835Y45939D01*
X81855Y46107D01*
X81868Y46288D01*
X81874Y46489D01*
Y46502D01*
Y46535D01*
Y46586D01*
X81868Y46658D01*
X81861Y46742D01*
X81855Y46839D01*
X81842Y46949D01*
X81823Y47066D01*
X81771Y47312D01*
X81738Y47435D01*
X81699Y47558D01*
X81654Y47681D01*
X81596Y47797D01*
X81531Y47908D01*
X81460Y48005D01*
X81453Y48011D01*
X81440Y48024D01*
X81421Y48050D01*
X81389Y48082D01*
X81343Y48121D01*
X81298Y48160D01*
X81240Y48205D01*
X81175Y48257D01*
X81103Y48303D01*
X81026Y48348D01*
X80942Y48387D01*
X80851Y48426D01*
X80760Y48458D01*
X80657Y48484D01*
X80547Y48497D01*
X80436Y48503D01*
D02*
G37*
G36*
X88565Y46340D02*
X88559D01*
X88552Y46334D01*
X88533Y46327D01*
X88500Y46321D01*
X88468Y46308D01*
X88422Y46295D01*
X88371Y46282D01*
X88306Y46269D01*
X88235Y46249D01*
X88157Y46230D01*
X88073Y46204D01*
X87976Y46185D01*
X87872Y46159D01*
X87762Y46133D01*
X87639Y46101D01*
X87509Y46075D01*
X87503D01*
X87477Y46068D01*
X87444Y46062D01*
X87393Y46049D01*
X87334Y46036D01*
X87270Y46016D01*
X87127Y45978D01*
X86972Y45932D01*
X86816Y45887D01*
X86745Y45854D01*
X86680Y45828D01*
X86622Y45803D01*
X86577Y45777D01*
X86570D01*
X86564Y45764D01*
X86525Y45731D01*
X86473Y45679D01*
X86415Y45608D01*
X86350Y45524D01*
X86298Y45420D01*
X86259Y45297D01*
X86253Y45233D01*
X86246Y45168D01*
Y45161D01*
Y45155D01*
Y45135D01*
X86253Y45110D01*
X86259Y45038D01*
X86279Y44954D01*
X86311Y44857D01*
X86356Y44753D01*
X86421Y44650D01*
X86512Y44546D01*
X86525Y44533D01*
X86564Y44507D01*
X86622Y44462D01*
X86700Y44416D01*
X86797Y44371D01*
X86913Y44326D01*
X87049Y44300D01*
X87198Y44287D01*
X87244D01*
X87276Y44293D01*
X87321D01*
X87367Y44306D01*
X87483Y44326D01*
X87619Y44365D01*
X87768Y44416D01*
X87924Y44494D01*
X88008Y44540D01*
X88086Y44591D01*
X88092D01*
X88099Y44604D01*
X88138Y44630D01*
X88189Y44682D01*
X88254Y44747D01*
X88325Y44831D01*
X88390Y44928D01*
X88448Y45038D01*
X88494Y45155D01*
X88500Y45168D01*
X88507Y45200D01*
X88513Y45226D01*
X88520Y45258D01*
X88526Y45297D01*
X88533Y45343D01*
X88539Y45395D01*
X88546Y45459D01*
Y45524D01*
X88552Y45602D01*
X88559Y45686D01*
X88565Y45783D01*
Y45887D01*
Y45997D01*
Y46340D01*
D02*
G37*
G36*
X69082D02*
X69076D01*
X69069Y46334D01*
X69050Y46327D01*
X69017Y46321D01*
X68985Y46308D01*
X68940Y46295D01*
X68888Y46282D01*
X68823Y46269D01*
X68752Y46249D01*
X68674Y46230D01*
X68590Y46204D01*
X68493Y46185D01*
X68389Y46159D01*
X68279Y46133D01*
X68156Y46101D01*
X68026Y46075D01*
X68020D01*
X67994Y46068D01*
X67962Y46062D01*
X67910Y46049D01*
X67852Y46036D01*
X67787Y46016D01*
X67644Y45978D01*
X67489Y45932D01*
X67333Y45887D01*
X67262Y45854D01*
X67197Y45828D01*
X67139Y45803D01*
X67094Y45777D01*
X67087D01*
X67081Y45764D01*
X67042Y45731D01*
X66990Y45679D01*
X66932Y45608D01*
X66867Y45524D01*
X66815Y45420D01*
X66776Y45297D01*
X66770Y45233D01*
X66763Y45168D01*
Y45161D01*
Y45155D01*
Y45135D01*
X66770Y45110D01*
X66776Y45038D01*
X66796Y44954D01*
X66828Y44857D01*
X66874Y44753D01*
X66938Y44650D01*
X67029Y44546D01*
X67042Y44533D01*
X67081Y44507D01*
X67139Y44462D01*
X67217Y44416D01*
X67314Y44371D01*
X67431Y44326D01*
X67567Y44300D01*
X67716Y44287D01*
X67761D01*
X67793Y44293D01*
X67839D01*
X67884Y44306D01*
X68000Y44326D01*
X68137Y44365D01*
X68285Y44416D01*
X68441Y44494D01*
X68525Y44540D01*
X68603Y44591D01*
X68609D01*
X68616Y44604D01*
X68655Y44630D01*
X68706Y44682D01*
X68771Y44747D01*
X68843Y44831D01*
X68907Y44928D01*
X68966Y45038D01*
X69011Y45155D01*
X69017Y45168D01*
X69024Y45200D01*
X69030Y45226D01*
X69037Y45258D01*
X69043Y45297D01*
X69050Y45343D01*
X69056Y45395D01*
X69063Y45459D01*
Y45524D01*
X69069Y45602D01*
X69076Y45686D01*
X69082Y45783D01*
Y45887D01*
Y45997D01*
Y46340D01*
D02*
G37*
G36*
X55157D02*
X55150D01*
X55144Y46334D01*
X55124Y46327D01*
X55092Y46321D01*
X55059Y46308D01*
X55014Y46295D01*
X54962Y46282D01*
X54898Y46269D01*
X54826Y46249D01*
X54749Y46230D01*
X54664Y46204D01*
X54567Y46185D01*
X54464Y46159D01*
X54353Y46133D01*
X54230Y46101D01*
X54101Y46075D01*
X54094D01*
X54068Y46068D01*
X54036Y46062D01*
X53984Y46049D01*
X53926Y46036D01*
X53861Y46016D01*
X53719Y45978D01*
X53563Y45932D01*
X53408Y45887D01*
X53337Y45854D01*
X53272Y45828D01*
X53214Y45803D01*
X53168Y45777D01*
X53162D01*
X53155Y45764D01*
X53116Y45731D01*
X53065Y45679D01*
X53006Y45608D01*
X52941Y45524D01*
X52890Y45420D01*
X52851Y45297D01*
X52844Y45233D01*
X52838Y45168D01*
Y45161D01*
Y45155D01*
Y45135D01*
X52844Y45110D01*
X52851Y45038D01*
X52870Y44954D01*
X52903Y44857D01*
X52948Y44753D01*
X53013Y44650D01*
X53103Y44546D01*
X53116Y44533D01*
X53155Y44507D01*
X53214Y44462D01*
X53291Y44416D01*
X53388Y44371D01*
X53505Y44326D01*
X53641Y44300D01*
X53790Y44287D01*
X53835D01*
X53868Y44293D01*
X53913D01*
X53958Y44306D01*
X54075Y44326D01*
X54211Y44365D01*
X54360Y44416D01*
X54515Y44494D01*
X54600Y44540D01*
X54677Y44591D01*
X54684D01*
X54690Y44604D01*
X54729Y44630D01*
X54781Y44682D01*
X54846Y44747D01*
X54917Y44831D01*
X54982Y44928D01*
X55040Y45038D01*
X55085Y45155D01*
X55092Y45168D01*
X55098Y45200D01*
X55105Y45226D01*
X55111Y45258D01*
X55118Y45297D01*
X55124Y45343D01*
X55131Y45395D01*
X55137Y45459D01*
Y45524D01*
X55144Y45602D01*
X55150Y45686D01*
X55157Y45783D01*
Y45887D01*
Y45997D01*
Y46340D01*
D02*
G37*
G36*
X43019Y48549D02*
X42967D01*
X42928Y48542D01*
X42876Y48536D01*
X42818Y48529D01*
X42760Y48516D01*
X42688Y48497D01*
X42546Y48445D01*
X42468Y48413D01*
X42390Y48374D01*
X42306Y48329D01*
X42235Y48270D01*
X42157Y48205D01*
X42086Y48134D01*
X42080Y48128D01*
X42073Y48115D01*
X42054Y48089D01*
X42028Y48057D01*
X42002Y48018D01*
X41969Y47966D01*
X41937Y47908D01*
X41905Y47843D01*
X41866Y47765D01*
X41834Y47681D01*
X41808Y47590D01*
X41775Y47493D01*
X41756Y47383D01*
X41736Y47273D01*
X41723Y47150D01*
Y47020D01*
X44301D01*
Y47027D01*
Y47053D01*
X44295Y47091D01*
Y47143D01*
X44288Y47208D01*
X44275Y47279D01*
X44262Y47357D01*
X44243Y47441D01*
X44198Y47623D01*
X44126Y47810D01*
X44088Y47908D01*
X44036Y47992D01*
X43977Y48076D01*
X43913Y48154D01*
X43906Y48160D01*
X43893Y48173D01*
X43874Y48193D01*
X43848Y48218D01*
X43809Y48244D01*
X43770Y48277D01*
X43718Y48316D01*
X43660Y48355D01*
X43530Y48426D01*
X43382Y48491D01*
X43297Y48510D01*
X43207Y48529D01*
X43116Y48542D01*
X43019Y48549D01*
D02*
G37*
G36*
X42540Y36872D02*
X41328Y33549D01*
X43783D01*
X42540Y36872D01*
D02*
G37*
G36*
X33744Y37448D02*
X31807D01*
Y35175D01*
X33349D01*
X33452Y35182D01*
X33698D01*
X33834Y35188D01*
X34113Y35201D01*
X34249Y35208D01*
X34378Y35220D01*
X34495Y35233D01*
X34605Y35246D01*
X34696Y35259D01*
X34767Y35279D01*
X34773D01*
X34780Y35285D01*
X34819Y35298D01*
X34877Y35331D01*
X34955Y35369D01*
X35033Y35421D01*
X35117Y35486D01*
X35201Y35564D01*
X35272Y35661D01*
X35279Y35674D01*
X35305Y35713D01*
X35331Y35771D01*
X35369Y35849D01*
X35402Y35946D01*
X35434Y36063D01*
X35454Y36192D01*
X35460Y36335D01*
Y36341D01*
Y36354D01*
Y36380D01*
X35454Y36412D01*
Y36451D01*
X35447Y36490D01*
X35428Y36594D01*
X35402Y36710D01*
X35357Y36833D01*
X35298Y36950D01*
X35214Y37060D01*
Y37066D01*
X35201Y37073D01*
X35169Y37105D01*
X35117Y37151D01*
X35039Y37209D01*
X34942Y37267D01*
X34825Y37325D01*
X34689Y37377D01*
X34534Y37416D01*
X34508D01*
X34482Y37423D01*
X34450D01*
X34404Y37429D01*
X34353D01*
X34288Y37436D01*
X34113D01*
X34009Y37442D01*
X33886D01*
X33744Y37448D01*
D02*
G37*
G36*
X61206Y25227D02*
X61154D01*
X61096Y25214D01*
X61018Y25201D01*
X60934Y25175D01*
X60844Y25143D01*
X60746Y25091D01*
X60649Y25026D01*
X60636Y25020D01*
X60610Y24987D01*
X60565Y24936D01*
X60507Y24864D01*
X60448Y24767D01*
X60416Y24709D01*
X60384Y24644D01*
X60351Y24573D01*
X60325Y24489D01*
X60293Y24404D01*
X60267Y24314D01*
Y24307D01*
X60261Y24281D01*
X60254Y24242D01*
X60241Y24184D01*
X60228Y24113D01*
X60209Y24022D01*
X60196Y23912D01*
X60183Y23783D01*
X60163Y23640D01*
X60150Y23472D01*
X60131Y23290D01*
X60118Y23090D01*
X60112Y22863D01*
X60099Y22623D01*
X60092Y22358D01*
Y22073D01*
Y22066D01*
Y22053D01*
Y22034D01*
Y22002D01*
Y21969D01*
Y21924D01*
Y21814D01*
X60099Y21691D01*
Y21542D01*
X60105Y21380D01*
X60112Y21211D01*
X60118Y21030D01*
X60131Y20849D01*
X60144Y20667D01*
X60157Y20492D01*
X60176Y20324D01*
X60196Y20168D01*
X60222Y20026D01*
X60248Y19903D01*
Y19897D01*
X60254Y19877D01*
X60267Y19845D01*
X60280Y19806D01*
X60293Y19761D01*
X60312Y19709D01*
X60358Y19586D01*
X60416Y19456D01*
X60487Y19326D01*
X60565Y19210D01*
X60604Y19158D01*
X60649Y19119D01*
X60662Y19113D01*
X60694Y19087D01*
X60746Y19061D01*
X60811Y19022D01*
X60895Y18990D01*
X60986Y18957D01*
X61096Y18931D01*
X61206Y18925D01*
X61219D01*
X61258Y18931D01*
X61316Y18938D01*
X61394Y18951D01*
X61478Y18970D01*
X61575Y19009D01*
X61666Y19054D01*
X61763Y19119D01*
X61776Y19132D01*
X61802Y19158D01*
X61847Y19210D01*
X61906Y19281D01*
X61964Y19385D01*
X61996Y19443D01*
X62029Y19508D01*
X62061Y19579D01*
X62087Y19657D01*
X62119Y19741D01*
X62145Y19832D01*
Y19838D01*
X62152Y19864D01*
X62165Y19903D01*
X62171Y19961D01*
X62191Y20032D01*
X62204Y20123D01*
X62217Y20233D01*
X62236Y20363D01*
X62256Y20505D01*
X62268Y20667D01*
X62288Y20855D01*
X62301Y21056D01*
X62307Y21276D01*
X62320Y21522D01*
X62327Y21788D01*
Y22073D01*
Y22079D01*
Y22092D01*
Y22112D01*
Y22144D01*
Y22176D01*
Y22222D01*
Y22325D01*
X62320Y22455D01*
Y22604D01*
X62314Y22759D01*
X62307Y22934D01*
X62301Y23109D01*
X62288Y23290D01*
X62275Y23472D01*
X62256Y23647D01*
X62242Y23815D01*
X62217Y23977D01*
X62191Y24113D01*
X62165Y24236D01*
Y24242D01*
X62158Y24262D01*
X62145Y24294D01*
X62139Y24333D01*
X62119Y24379D01*
X62100Y24430D01*
X62055Y24553D01*
X61996Y24690D01*
X61925Y24819D01*
X61847Y24936D01*
X61802Y24987D01*
X61757Y25026D01*
X61744Y25033D01*
X61718Y25059D01*
X61666Y25091D01*
X61601Y25130D01*
X61517Y25162D01*
X61426Y25195D01*
X61316Y25221D01*
X61206Y25227D01*
D02*
G37*
G36*
X50765D02*
X50713D01*
X50655Y25214D01*
X50577Y25201D01*
X50493Y25175D01*
X50402Y25143D01*
X50305Y25091D01*
X50208Y25026D01*
X50195Y25020D01*
X50169Y24987D01*
X50124Y24936D01*
X50066Y24864D01*
X50007Y24767D01*
X49975Y24709D01*
X49943Y24644D01*
X49910Y24573D01*
X49884Y24489D01*
X49852Y24404D01*
X49826Y24314D01*
Y24307D01*
X49820Y24281D01*
X49813Y24242D01*
X49800Y24184D01*
X49787Y24113D01*
X49768Y24022D01*
X49755Y23912D01*
X49742Y23783D01*
X49722Y23640D01*
X49710Y23472D01*
X49690Y23290D01*
X49677Y23090D01*
X49671Y22863D01*
X49658Y22623D01*
X49651Y22358D01*
Y22073D01*
Y22066D01*
Y22053D01*
Y22034D01*
Y22002D01*
Y21969D01*
Y21924D01*
Y21814D01*
X49658Y21691D01*
Y21542D01*
X49664Y21380D01*
X49671Y21211D01*
X49677Y21030D01*
X49690Y20849D01*
X49703Y20667D01*
X49716Y20492D01*
X49735Y20324D01*
X49755Y20168D01*
X49781Y20026D01*
X49807Y19903D01*
Y19897D01*
X49813Y19877D01*
X49826Y19845D01*
X49839Y19806D01*
X49852Y19761D01*
X49871Y19709D01*
X49917Y19586D01*
X49975Y19456D01*
X50046Y19326D01*
X50124Y19210D01*
X50163Y19158D01*
X50208Y19119D01*
X50221Y19113D01*
X50254Y19087D01*
X50305Y19061D01*
X50370Y19022D01*
X50454Y18990D01*
X50545Y18957D01*
X50655Y18931D01*
X50765Y18925D01*
X50778D01*
X50817Y18931D01*
X50875Y18938D01*
X50953Y18951D01*
X51037Y18970D01*
X51134Y19009D01*
X51225Y19054D01*
X51322Y19119D01*
X51335Y19132D01*
X51361Y19158D01*
X51406Y19210D01*
X51465Y19281D01*
X51523Y19385D01*
X51555Y19443D01*
X51588Y19508D01*
X51620Y19579D01*
X51646Y19657D01*
X51679Y19741D01*
X51704Y19832D01*
Y19838D01*
X51711Y19864D01*
X51724Y19903D01*
X51730Y19961D01*
X51750Y20032D01*
X51763Y20123D01*
X51776Y20233D01*
X51795Y20363D01*
X51814Y20505D01*
X51828Y20667D01*
X51847Y20855D01*
X51860Y21056D01*
X51866Y21276D01*
X51879Y21522D01*
X51886Y21788D01*
Y22073D01*
Y22079D01*
Y22092D01*
Y22112D01*
Y22144D01*
Y22176D01*
Y22222D01*
Y22325D01*
X51879Y22455D01*
Y22604D01*
X51873Y22759D01*
X51866Y22934D01*
X51860Y23109D01*
X51847Y23290D01*
X51834Y23472D01*
X51814Y23647D01*
X51802Y23815D01*
X51776Y23977D01*
X51750Y24113D01*
X51724Y24236D01*
Y24242D01*
X51717Y24262D01*
X51704Y24294D01*
X51698Y24333D01*
X51679Y24379D01*
X51659Y24430D01*
X51614Y24553D01*
X51555Y24690D01*
X51484Y24819D01*
X51406Y24936D01*
X51361Y24987D01*
X51316Y25026D01*
X51303Y25033D01*
X51277Y25059D01*
X51225Y25091D01*
X51160Y25130D01*
X51076Y25162D01*
X50985Y25195D01*
X50875Y25221D01*
X50765Y25227D01*
D02*
G37*
%LPD*%
M02*
