G04*
G04 #@! TF.GenerationSoftware,Altium Limited,Altium Designer,25.8.1 (18)*
G04*
G04 Layer_Physical_Order=2*
G04 Layer_Color=16711680*
%FSLAX44Y44*%
%MOMM*%
G71*
G04*
G04 #@! TF.SameCoordinates,35E46C87-A708-4878-9C39-C93A67F0F4E1*
G04*
G04*
G04 #@! TF.FilePolarity,Positive*
G04*
G01*
G75*
%ADD18C,0.2000*%
%ADD19C,0.4000*%
D18*
X30000Y37000D02*
G03*
X73000Y80000I-145J43145D01*
G01*
X29855Y37000D02*
G03*
X30000Y37000I0J43145D01*
G01*
X73000Y80000D02*
G03*
X73000Y80145I-43145J145D01*
G01*
X30000Y17000D02*
G03*
X93000Y80000I0J63000D01*
G01*
X30000Y21000D02*
G03*
X89000Y80000I0J59000D01*
G01*
X30000Y25000D02*
G03*
X85000Y80000I0J55000D01*
G01*
X30000Y29000D02*
G03*
X81000Y80000I0J51000D01*
G01*
X30000Y33000D02*
G03*
X77000Y80000I0J47000D01*
G01*
X30000Y41000D02*
G03*
X69000Y80000I0J39000D01*
G01*
X30000Y45000D02*
G03*
X65000Y80000I0J35000D01*
G01*
X30000Y49000D02*
G03*
X61000Y80000I0J31000D01*
G01*
X30000Y53000D02*
G03*
X57000Y80000I0J27000D01*
G01*
X73000Y80145D02*
Y97500D01*
X12500Y37000D02*
X29855D01*
X93000Y80000D02*
Y94000D01*
X89000Y80000D02*
Y97500D01*
X85000Y80000D02*
Y94000D01*
X81000Y80000D02*
Y97500D01*
X77000Y80000D02*
Y94000D01*
X69000Y80000D02*
Y94000D01*
X65000Y80000D02*
Y97500D01*
X61000Y80000D02*
Y94000D01*
X57000Y80000D02*
Y97500D01*
X16000Y17000D02*
X30000D01*
X12500Y21000D02*
X30000D01*
X16000Y25000D02*
X30000D01*
X12500Y29000D02*
X30000D01*
X16000Y33000D02*
X30000D01*
X16000Y41000D02*
X30000D01*
X12500Y45000D02*
X30000D01*
X16000Y49000D02*
X30000D01*
X12500Y53000D02*
X30000D01*
D19*
X12500Y21000D02*
D03*
Y45000D02*
D03*
Y37000D02*
D03*
X16000Y41000D02*
D03*
Y33000D02*
D03*
Y17000D02*
D03*
Y25000D02*
D03*
X12500Y29000D02*
D03*
X93000Y94000D02*
D03*
X89000Y97500D02*
D03*
X85000Y94000D02*
D03*
X81000Y97500D02*
D03*
X77000Y94000D02*
D03*
X73000Y97500D02*
D03*
X69000Y94000D02*
D03*
X65000Y97500D02*
D03*
X61000Y94000D02*
D03*
X57000Y97500D02*
D03*
X12500Y53000D02*
D03*
X16000Y49000D02*
D03*
M02*
