G04*
G04 #@! TF.GenerationSoftware,Altium Limited,Altium Designer,25.8.1 (18)*
G04*
G04 Layer_Color=16711935*
%FSLAX44Y44*%
%MOMM*%
G71*
G04*
G04 #@! TF.SameCoordinates,35E46C87-A708-4878-9C39-C93A67F0F4E1*
G04*
G04*
G04 #@! TF.FilePolarity,Positive*
G04*
G01*
G75*
G36*
X30000Y0D02*
X10000Y0D01*
X9015Y0D01*
X7083Y384D01*
X5263Y1138D01*
X3625Y2232D01*
X2233Y3625D01*
X1138Y5263D01*
X384Y7083D01*
X0Y9015D01*
Y10000D01*
Y10000D01*
Y60000D01*
Y60985D01*
X384Y62917D01*
X1138Y64737D01*
X2233Y66375D01*
X3625Y67767D01*
X5263Y68862D01*
X7083Y69616D01*
X9015Y70000D01*
X10000D01*
X10000Y70000D01*
X30000Y70000D01*
Y0D01*
D02*
G37*
G36*
X102917Y109616D02*
X104737Y108862D01*
X106375Y107767D01*
X107767Y106375D01*
X108862Y104737D01*
X109616Y102917D01*
X110000Y100985D01*
X110000Y100000D01*
X110000Y100000D01*
X110000Y80000D01*
X40000D01*
Y100000D01*
X40000Y100985D01*
X40384Y102917D01*
X41138Y104737D01*
X42232Y106375D01*
X43625Y107767D01*
X45263Y108862D01*
X47083Y109616D01*
X49015Y110000D01*
X50000D01*
X100000Y110000D01*
X100985D01*
X102917Y109616D01*
D02*
G37*
M02*
