G04*
G04 #@! TF.GenerationSoftware,Altium Limited,Altium Designer,25.8.1 (18)*
G04*
G04 Layer_Color=8388736*
%FSLAX44Y44*%
%MOMM*%
G71*
G04*
G04 #@! TF.SameCoordinates,35E46C87-A708-4878-9C39-C93A67F0F4E1*
G04*
G04*
G04 #@! TF.FilePolarity,Negative*
G04*
G01*
G75*
%ADD14R,0.5532X0.6432*%
%ADD15R,0.4232X0.8632*%
%ADD16R,0.6432X0.5532*%
%ADD17R,0.8632X0.4232*%
D14*
X47500Y95000D02*
D03*
X102500Y95001D02*
D03*
D15*
X73000Y86450D02*
D03*
X77000D02*
D03*
X69000D02*
D03*
X81000D02*
D03*
X57000D02*
D03*
X61000D02*
D03*
X65000D02*
D03*
X93000Y103550D02*
D03*
X89000D02*
D03*
X85000D02*
D03*
X81000D02*
D03*
X77000D02*
D03*
X73000D02*
D03*
X69000D02*
D03*
X65000D02*
D03*
X61000D02*
D03*
X57000D02*
D03*
X93000Y86450D02*
D03*
X89000D02*
D03*
X85000D02*
D03*
D16*
X15000Y62500D02*
D03*
X15001Y7500D02*
D03*
D17*
X6450Y37000D02*
D03*
Y33000D02*
D03*
Y41000D02*
D03*
Y29000D02*
D03*
Y53000D02*
D03*
Y49000D02*
D03*
Y45000D02*
D03*
X23550Y17000D02*
D03*
Y21000D02*
D03*
Y25000D02*
D03*
Y29000D02*
D03*
Y33000D02*
D03*
Y37000D02*
D03*
Y41000D02*
D03*
Y45000D02*
D03*
Y49000D02*
D03*
Y53000D02*
D03*
X6450Y17000D02*
D03*
Y21000D02*
D03*
Y25000D02*
D03*
M02*
